<?xml version="1.0" encoding="utf-8"?>
<!-- Generator: Adobe Illustrator 16.0.0, SVG Export Plug-In . SVG Version: 6.00 Build 0)  -->
<!DOCTYPE svg PUBLIC "-//W3C//DTD SVG 1.1//EN" "http://www.w3.org/Graphics/SVG/1.1/DTD/svg11.dtd">
<svg version="1.1" id="Capa_2" xmlns="http://www.w3.org/2000/svg" xmlns:xlink="http://www.w3.org/1999/xlink" x="0px" y="0px"
	 width="40.995px" height="9.551px" viewBox="-9.146 6.213 40.995 9.551" enable-background="new -9.146 6.213 40.995 9.551"
	 xml:space="preserve">
<g>
	<g>
		<rect x="0.059" y="12.104" opacity="0.65" fill="#FFFFFF" enable-background="new    " width="22.617" height="0.076"/>
		<g opacity="0.85">
			<g>
				<g>
					<path fill="#FFFFFF" d="M7.539,7.636c0.16-0.027,0.387-0.049,0.705-0.049c0.32,0,0.553,0.061,0.707,0.188
						C9.1,7.886,9.195,8.081,9.195,8.304c0,0.229-0.07,0.422-0.209,0.547c-0.18,0.166-0.445,0.244-0.754,0.244
						c-0.066,0-0.129-0.004-0.178-0.014V9.91H7.539V7.636z M8.055,8.682c0.045,0.012,0.1,0.014,0.174,0.014
						c0.277,0,0.449-0.139,0.449-0.371c0-0.213-0.145-0.34-0.406-0.34c-0.105,0-0.178,0.009-0.217,0.02V8.682z"/>
					<path fill="#FFFFFF" d="M9.441,7.638c0.168-0.029,0.414-0.051,0.693-0.051c0.342,0,0.582,0.051,0.748,0.184
						c0.139,0.109,0.215,0.271,0.215,0.482c0,0.293-0.209,0.492-0.406,0.564v0.011c0.16,0.065,0.25,0.216,0.309,0.427
						c0.07,0.266,0.141,0.565,0.186,0.654H10.65c-0.035-0.066-0.092-0.254-0.158-0.538c-0.062-0.29-0.164-0.364-0.379-0.368H9.957
						V9.91H9.441V7.638z M9.957,8.627h0.205c0.262,0,0.414-0.13,0.414-0.332c0-0.209-0.143-0.316-0.383-0.316
						c-0.127,0-0.199,0.006-0.236,0.017V8.627z"/>
					<path fill="#FFFFFF" d="M12.352,9.948c-0.684,0-1.088-0.519-1.088-1.172c0-0.691,0.445-1.207,1.125-1.207
						c0.707,0,1.094,0.529,1.094,1.164c0,0.761-0.453,1.215-1.129,1.215H12.352L12.352,9.948z M12.375,9.535
						c0.352,0,0.555-0.331,0.555-0.783c0-0.415-0.195-0.769-0.555-0.769c-0.361,0-0.564,0.346-0.564,0.777
						c0,0.436,0.213,0.773,0.561,0.773L12.375,9.535L12.375,9.535z"/>
					<path fill="#FFFFFF" d="M15.43,9.847c-0.094,0.046-0.312,0.101-0.588,0.101c-0.799,0-1.209-0.5-1.209-1.158
						c0-0.785,0.561-1.221,1.26-1.221c0.27,0,0.475,0.054,0.566,0.102l-0.107,0.411c-0.105-0.045-0.25-0.086-0.439-0.086
						c-0.41,0-0.73,0.251-0.73,0.767c0,0.463,0.273,0.752,0.732,0.752c0.162,0,0.334-0.029,0.441-0.076L15.43,9.847z"/>
					<path fill="#FFFFFF" d="M17.061,8.936h-0.852v0.547h0.947v0.429h-1.467V7.605h1.42v0.428h-0.9v0.479h0.852V8.936L17.061,8.936z
						"/>
					<path fill="#FFFFFF" d="M17.445,9.376c0.137,0.071,0.355,0.146,0.578,0.146c0.24,0,0.367-0.102,0.367-0.256
						c0-0.14-0.111-0.225-0.389-0.32c-0.385-0.137-0.637-0.35-0.637-0.688c0-0.395,0.33-0.689,0.871-0.689
						c0.266,0,0.451,0.051,0.588,0.115l-0.113,0.418c-0.092-0.045-0.258-0.108-0.48-0.108c-0.227,0-0.334,0.104-0.334,0.222
						c0,0.146,0.125,0.211,0.424,0.329c0.408,0.149,0.602,0.361,0.602,0.688c0,0.388-0.297,0.716-0.932,0.716
						c-0.264,0-0.52-0.072-0.65-0.145L17.445,9.376z"/>
					<path fill="#FFFFFF" d="M19.205,9.376c0.139,0.071,0.357,0.146,0.578,0.146c0.24,0,0.365-0.102,0.365-0.256
						c0-0.14-0.105-0.225-0.387-0.32c-0.381-0.137-0.637-0.35-0.637-0.688c0-0.395,0.334-0.689,0.871-0.689
						c0.266,0,0.453,0.051,0.59,0.115l-0.115,0.418c-0.088-0.045-0.256-0.108-0.479-0.108c-0.227,0-0.338,0.104-0.338,0.222
						c0,0.146,0.127,0.211,0.428,0.329c0.408,0.149,0.598,0.361,0.598,0.688c0,0.388-0.295,0.716-0.93,0.716
						c-0.262,0-0.52-0.072-0.652-0.145L19.205,9.376z"/>
				</g>
				<g>
					<path fill="#FFFFFF" d="M7.547,7.175C7.619,7.212,7.736,7.25,7.854,7.25c0.127,0,0.195-0.052,0.195-0.135
						c0-0.072-0.059-0.118-0.205-0.171C7.641,6.874,7.506,6.757,7.506,6.582c0-0.21,0.176-0.368,0.463-0.368
						c0.141,0,0.24,0.028,0.312,0.062L8.219,6.498c-0.047-0.022-0.137-0.06-0.254-0.06c-0.119,0-0.18,0.058-0.18,0.119
						c0,0.08,0.068,0.112,0.229,0.174C8.229,6.811,8.33,6.921,8.33,7.097c0,0.205-0.156,0.379-0.492,0.379
						c-0.141,0-0.279-0.037-0.35-0.076L7.547,7.175z"/>
					<path fill="#FFFFFF" d="M8.672,7.458L8.381,6.234h0.297L8.77,6.737c0.027,0.145,0.053,0.307,0.074,0.429h0.002
						c0.021-0.132,0.051-0.282,0.08-0.432l0.104-0.5h0.295l0.1,0.515c0.023,0.143,0.045,0.274,0.062,0.412H9.49
						c0.018-0.138,0.045-0.28,0.07-0.427l0.1-0.5h0.283L9.627,7.458H9.328L9.223,6.932C9.201,6.807,9.18,6.694,9.166,6.554H9.162
						c-0.021,0.139-0.041,0.252-0.07,0.377L8.975,7.458H8.672z"/>
					<path fill="#FFFFFF" d="M10.043,6.251c0.072-0.014,0.217-0.024,0.357-0.024c0.166,0,0.271,0.016,0.361,0.066
						c0.084,0.047,0.145,0.129,0.145,0.243c0,0.104-0.064,0.205-0.199,0.259v0.004c0.139,0.036,0.242,0.143,0.242,0.303
						c0,0.111-0.051,0.199-0.127,0.259c-0.088,0.071-0.236,0.112-0.48,0.112c-0.137,0-0.238-0.01-0.299-0.021V6.251z M10.316,6.718
						h0.092c0.146,0,0.225-0.061,0.225-0.148c0-0.094-0.07-0.145-0.195-0.145c-0.062,0-0.098,0.004-0.119,0.01v0.283H10.316z
						 M10.316,7.261c0.027,0.008,0.062,0.008,0.109,0.008c0.123,0,0.234-0.051,0.234-0.18c0-0.123-0.111-0.172-0.248-0.172h-0.096
						V7.261L10.316,7.261z"/>
				</g>
				<path fill="#FFFFFF" d="M4.291,8.509l0.305-0.162C4.594,8.171,4.566,8.003,4.51,7.845L4.172,7.798
					C4.146,7.748,4.117,7.697,4.088,7.65l0.127-0.319C4.107,7.205,3.975,7.093,3.83,7.005L3.539,7.189
					C3.486,7.166,3.43,7.145,3.375,7.127L3.268,6.8C3.186,6.787,3.102,6.779,3.016,6.779S2.846,6.787,2.764,6.8L2.658,7.126
					C2.602,7.143,2.547,7.164,2.492,7.188L2.201,7.005C2.057,7.093,1.926,7.204,1.816,7.331l0.129,0.32
					C1.914,7.697,1.885,7.748,1.861,7.796L1.523,7.845C1.469,8.003,1.439,8.171,1.438,8.347l0.307,0.162
					C1.75,8.564,1.76,8.615,1.773,8.668L1.545,8.922c0.061,0.162,0.148,0.311,0.26,0.444l0.338-0.074
					C2.18,9.328,2.219,9.359,2.26,9.392L2.248,9.737c0.146,0.08,0.311,0.144,0.484,0.176l0.211-0.272
					c0.025,0.002,0.049,0.002,0.074,0.002s0.051,0,0.074-0.002l0.213,0.272C3.479,9.88,3.641,9.817,3.791,9.737L3.777,9.391
					c0.041-0.03,0.08-0.062,0.117-0.099l0.338,0.074C4.342,9.231,4.43,9.083,4.49,8.921L4.262,8.668
					C4.275,8.617,4.283,8.564,4.291,8.509z"/>
				<path fill="#FFFFFF" d="M6.287,9.052l0.162,0.146C6.426,9.288,6.391,9.372,6.346,9.447l-0.219-0.01
					c-0.043,0.057-0.096,0.107-0.15,0.152l0.012,0.218C5.91,9.852,5.824,9.886,5.736,9.911L5.59,9.748
					C5.555,9.754,5.52,9.754,5.484,9.754c-0.037,0-0.072,0-0.107-0.007L5.23,9.91c-0.09-0.022-0.174-0.06-0.252-0.104l0.014-0.217
					C4.934,9.543,4.887,9.492,4.844,9.437L4.623,9.447C4.578,9.37,4.543,9.287,4.52,9.197l0.164-0.146
					c-0.008-0.036-0.01-0.073-0.01-0.11c0-0.035,0.002-0.07,0.008-0.104L4.52,8.691c0.023-0.09,0.059-0.174,0.105-0.252l0.217,0.011
					c0.043-0.058,0.094-0.106,0.15-0.151l-0.01-0.216c0.078-0.047,0.162-0.081,0.25-0.106l0.148,0.164
					c0.031-0.004,0.068-0.008,0.104-0.008c0.037,0,0.072,0.004,0.107,0.008l0.146-0.16c0.09,0.023,0.174,0.059,0.25,0.104
					l-0.01,0.217c0.059,0.043,0.107,0.094,0.15,0.149l0.219-0.01c0.045,0.078,0.08,0.164,0.104,0.253L6.289,8.839
					c0.004,0.035,0.008,0.071,0.008,0.106C6.297,8.98,6.293,9.018,6.287,9.052z"/>
				<path fill="#FFFFFF" d="M5.219,7.735C5.24,7.72,5.262,7.708,5.281,7.691l0.172,0.035C5.535,7.638,5.59,7.535,5.619,7.419
					L5.494,7.294c0.006-0.05,0.006-0.1-0.002-0.15l0.117-0.133C5.594,6.958,5.568,6.903,5.537,6.854
					C5.506,6.802,5.469,6.755,5.428,6.716l-0.17,0.041C5.217,6.73,5.172,6.708,5.125,6.689L5.068,6.52
					c-0.113-0.023-0.232-0.021-0.348,0.01L4.674,6.7C4.652,6.71,4.629,6.72,4.609,6.735C4.586,6.748,4.566,6.761,4.547,6.778
					L4.373,6.74c-0.08,0.09-0.137,0.193-0.166,0.309l0.125,0.127C4.326,7.225,4.326,7.273,4.334,7.325L4.219,7.456
					C4.236,7.511,4.26,7.564,4.291,7.617C4.32,7.668,4.357,7.713,4.398,7.754L4.57,7.709C4.611,7.738,4.654,7.762,4.701,7.78
					l0.057,0.167c0.113,0.027,0.23,0.023,0.35-0.008l0.045-0.17C5.176,7.757,5.197,7.748,5.219,7.735z"/>
				<g>
					<path fill="#FFFFFF" d="M21.139,9.47c0.041,0,0.08,0.012,0.119,0.031c0.037,0.021,0.062,0.051,0.09,0.09
						c0.02,0.037,0.029,0.076,0.029,0.117c0,0.04-0.012,0.08-0.029,0.117c-0.023,0.036-0.051,0.065-0.088,0.089
						c-0.039,0.021-0.078,0.031-0.121,0.031c-0.039,0-0.078-0.012-0.117-0.031c-0.035-0.021-0.066-0.053-0.088-0.089
						c-0.023-0.037-0.029-0.077-0.029-0.117c0-0.041,0.01-0.08,0.029-0.117c0.02-0.039,0.053-0.068,0.09-0.09
						C21.061,9.482,21.1,9.47,21.139,9.47z M21.139,9.509c-0.031,0-0.062,0.01-0.098,0.025c-0.029,0.018-0.055,0.043-0.07,0.075
						c-0.021,0.03-0.027,0.063-0.027,0.099s0.01,0.065,0.027,0.099c0.016,0.03,0.041,0.057,0.07,0.073
						c0.029,0.019,0.062,0.026,0.098,0.026c0.037,0,0.066-0.01,0.1-0.026c0.033-0.019,0.057-0.043,0.074-0.073
						c0.016-0.031,0.027-0.062,0.027-0.099s-0.014-0.068-0.027-0.099c-0.02-0.032-0.043-0.058-0.074-0.075
						C21.205,9.52,21.176,9.509,21.139,9.509z M21.033,9.839V9.584h0.092c0.027,0,0.053,0.004,0.062,0.008
						c0.014,0.006,0.025,0.012,0.031,0.024c0.008,0.013,0.014,0.024,0.014,0.038c0,0.02-0.008,0.033-0.02,0.049
						c-0.016,0.014-0.031,0.021-0.055,0.023c0.01,0.002,0.018,0.008,0.021,0.012c0.012,0.011,0.02,0.027,0.037,0.053l0.029,0.049
						h-0.051l-0.021-0.041c-0.02-0.031-0.031-0.051-0.041-0.061c-0.012-0.004-0.021-0.006-0.035-0.006h-0.023v0.106H21.033
						L21.033,9.839z M21.076,9.698h0.051c0.023,0,0.041-0.003,0.051-0.01c0.008-0.01,0.014-0.019,0.014-0.029
						c0-0.008-0.004-0.016-0.008-0.021c-0.004-0.005-0.008-0.01-0.018-0.014c-0.01-0.003-0.021-0.004-0.041-0.004h-0.049V9.698z"/>
				</g>
			</g>
		</g>
	</g>
	<g opacity="0.8">
		<path fill="#FFFFFF" d="M-8.974,15.244h0.605v0.137h-0.778v-1.279h0.173V15.244z"/>
		<path fill="#FFFFFF" d="M-7.623,15.381c-0.006-0.028-0.01-0.054-0.014-0.076c-0.003-0.021-0.005-0.044-0.006-0.066
			c-0.032,0.046-0.074,0.084-0.126,0.115c-0.052,0.03-0.107,0.046-0.167,0.046c-0.1,0-0.175-0.025-0.227-0.076
			s-0.078-0.12-0.078-0.21c0-0.091,0.037-0.161,0.11-0.213c0.074-0.051,0.174-0.077,0.3-0.077h0.188v-0.094
			c0-0.056-0.017-0.1-0.051-0.132c-0.034-0.033-0.082-0.049-0.144-0.049c-0.056,0-0.102,0.014-0.136,0.042
			c-0.035,0.028-0.053,0.062-0.053,0.103H-8.19l-0.002-0.005c-0.004-0.069,0.029-0.133,0.098-0.19
			c0.069-0.057,0.158-0.086,0.268-0.086c0.107,0,0.194,0.027,0.26,0.082s0.099,0.134,0.099,0.237v0.458
			c0,0.034,0.001,0.066,0.005,0.099c0.004,0.031,0.01,0.062,0.02,0.093H-7.623z M-7.91,15.254c0.062,0,0.119-0.017,0.17-0.049
			c0.05-0.032,0.083-0.068,0.098-0.11V14.94h-0.194c-0.069,0-0.125,0.018-0.167,0.053s-0.062,0.076-0.062,0.123
			c0,0.043,0.013,0.076,0.039,0.101S-7.962,15.254-7.91,15.254z"/>
		<path fill="#FFFFFF" d="M-6.375,15.399c-0.133,0-0.238-0.044-0.316-0.133c-0.078-0.088-0.117-0.202-0.117-0.343v-0.039
			c0-0.135,0.04-0.248,0.121-0.338c0.08-0.09,0.176-0.135,0.286-0.135c0.128,0,0.225,0.039,0.291,0.116
			c0.065,0.077,0.098,0.181,0.098,0.31v0.107h-0.616l-0.003,0.005c0.002,0.091,0.024,0.166,0.069,0.225s0.107,0.088,0.188,0.088
			c0.059,0,0.109-0.008,0.154-0.024c0.044-0.017,0.082-0.04,0.114-0.069l0.068,0.112c-0.034,0.034-0.079,0.062-0.135,0.084
			C-6.229,15.388-6.296,15.399-6.375,15.399z M-6.401,14.549c-0.059,0-0.107,0.024-0.148,0.073s-0.066,0.109-0.076,0.184
			l0.002,0.004h0.438v-0.022c0-0.068-0.018-0.125-0.055-0.17C-6.276,14.571-6.33,14.549-6.401,14.549z"/>
		<path fill="#FFFFFF" d="M-5.512,15.101l0.015,0.066h0.005l0.017-0.066l0.22-0.671h0.176l-0.35,0.951h-0.131l-0.354-0.951h0.178
			L-5.512,15.101z"/>
		<path fill="#FFFFFF" d="M-4.979,14.896c0-0.141,0.038-0.257,0.114-0.348s0.18-0.137,0.311-0.137c0.132,0,0.236,0.046,0.312,0.137
			s0.114,0.207,0.114,0.348v0.02c0,0.142-0.038,0.258-0.114,0.348c-0.076,0.091-0.18,0.136-0.311,0.136
			c-0.132,0-0.235-0.045-0.312-0.136c-0.077-0.091-0.115-0.206-0.115-0.348V14.896z M-4.805,14.915c0,0.102,0.021,0.185,0.063,0.25
			c0.042,0.065,0.105,0.098,0.189,0.098c0.082,0,0.146-0.032,0.188-0.098C-4.321,15.1-4.3,15.017-4.3,14.915v-0.019
			c0-0.1-0.021-0.183-0.064-0.249c-0.043-0.065-0.106-0.099-0.189-0.099s-0.146,0.033-0.188,0.099
			c-0.043,0.066-0.063,0.149-0.063,0.249V14.915z"/>
		<path fill="#FFFFFF" d="M-3.728,15.381H-3.9V14.01h0.173V15.381z"/>
		<path fill="#FFFFFF" d="M-2.857,15.24c-0.03,0.051-0.068,0.09-0.115,0.118c-0.047,0.027-0.101,0.041-0.162,0.041
			c-0.104,0-0.185-0.033-0.243-0.1c-0.058-0.066-0.087-0.169-0.087-0.31V14.43h0.173v0.562c0,0.102,0.016,0.171,0.045,0.209
			c0.03,0.038,0.077,0.058,0.14,0.058c0.062,0,0.112-0.013,0.153-0.037c0.04-0.025,0.07-0.061,0.091-0.106V14.43h0.173v0.951h-0.155
			L-2.857,15.24z"/>
		<path fill="#FFFFFF" d="M-2.051,15.263c0.057,0,0.107-0.018,0.151-0.053s0.065-0.079,0.065-0.131h0.155l0.002,0.006
			c0.003,0.082-0.033,0.154-0.109,0.219c-0.076,0.063-0.164,0.096-0.265,0.096c-0.139,0-0.244-0.045-0.317-0.136
			c-0.073-0.09-0.11-0.203-0.11-0.34v-0.037c0-0.135,0.037-0.248,0.11-0.339c0.074-0.09,0.18-0.136,0.317-0.136
			c0.111,0,0.202,0.033,0.272,0.099s0.104,0.146,0.103,0.241l-0.002,0.006h-0.156c0-0.059-0.021-0.107-0.062-0.148
			c-0.041-0.04-0.093-0.061-0.155-0.061c-0.091,0-0.156,0.032-0.195,0.098s-0.058,0.146-0.058,0.24v0.037
			c0,0.097,0.019,0.178,0.058,0.242C-2.208,15.23-2.143,15.263-2.051,15.263z"/>
		<path fill="#FFFFFF" d="M-1.296,14.187h-0.173V14.01h0.173V14.187z M-1.296,15.381h-0.173V14.43h0.173V15.381z"/>
		<path fill="#FFFFFF" d="M-1.069,14.896c0-0.141,0.038-0.257,0.114-0.348s0.18-0.137,0.311-0.137c0.132,0,0.236,0.046,0.312,0.137
			s0.114,0.207,0.114,0.348v0.02c0,0.142-0.038,0.258-0.114,0.348c-0.076,0.091-0.18,0.136-0.311,0.136
			c-0.132,0-0.235-0.045-0.312-0.136c-0.077-0.091-0.115-0.206-0.115-0.348V14.896z M-0.896,14.915c0,0.102,0.021,0.185,0.063,0.25
			c0.042,0.065,0.105,0.098,0.189,0.098c0.082,0,0.146-0.032,0.188-0.098c0.043-0.065,0.064-0.148,0.064-0.25v-0.019
			c0-0.1-0.021-0.183-0.064-0.249c-0.043-0.065-0.106-0.099-0.189-0.099s-0.146,0.033-0.188,0.099
			c-0.043,0.066-0.063,0.149-0.063,0.249V14.915z M-0.56,14.062h0.202l0.002,0.005l-0.237,0.229h-0.129L-0.56,14.062z"/>
		<path fill="#FFFFFF" d="M0.148,14.43l0.013,0.142c0.031-0.05,0.071-0.09,0.119-0.117c0.048-0.028,0.102-0.042,0.163-0.042
			c0.103,0,0.182,0.03,0.237,0.09c0.057,0.061,0.085,0.153,0.085,0.278v0.601H0.593v-0.597c0-0.084-0.017-0.144-0.05-0.179
			s-0.084-0.053-0.151-0.053c-0.051,0-0.095,0.013-0.133,0.036c-0.038,0.024-0.069,0.057-0.092,0.099v0.693h-0.173V14.43H0.148z"/>
		<path fill="#FFFFFF" d="M1.859,15.399c-0.133,0-0.238-0.044-0.316-0.133c-0.078-0.088-0.117-0.202-0.117-0.343v-0.039
			c0-0.135,0.04-0.248,0.121-0.338c0.08-0.09,0.176-0.135,0.286-0.135c0.128,0,0.225,0.039,0.291,0.116
			c0.065,0.077,0.098,0.181,0.098,0.31v0.107H1.605L1.603,14.95c0.002,0.091,0.024,0.166,0.069,0.225s0.107,0.088,0.188,0.088
			c0.059,0,0.109-0.008,0.154-0.024c0.044-0.017,0.082-0.04,0.114-0.069l0.068,0.112c-0.034,0.034-0.079,0.062-0.135,0.084
			C2.006,15.388,1.938,15.399,1.859,15.399z M1.833,14.549c-0.059,0-0.107,0.024-0.148,0.073s-0.066,0.109-0.076,0.184L1.61,14.81
			h0.438v-0.022c0-0.068-0.018-0.125-0.055-0.17C1.958,14.571,1.904,14.549,1.833,14.549z"/>
		<path fill="#FFFFFF" d="M2.571,14.43l0.013,0.142c0.031-0.05,0.071-0.09,0.119-0.117c0.048-0.028,0.102-0.042,0.163-0.042
			c0.103,0,0.182,0.03,0.237,0.09c0.057,0.061,0.085,0.153,0.085,0.278v0.601H3.016v-0.597c0-0.084-0.017-0.144-0.05-0.179
			s-0.084-0.053-0.151-0.053c-0.051,0-0.095,0.013-0.133,0.036c-0.038,0.024-0.069,0.057-0.092,0.099v0.693H2.417V14.43H2.571z"/>
		<path fill="#FFFFFF" d="M4.073,15.381H3.9V14.01h0.173V15.381z"/>
		<path fill="#FFFFFF" d="M4.925,15.381c-0.006-0.028-0.01-0.054-0.014-0.076c-0.003-0.021-0.005-0.044-0.006-0.066
			c-0.032,0.046-0.074,0.084-0.126,0.115c-0.052,0.03-0.107,0.046-0.167,0.046c-0.1,0-0.175-0.025-0.227-0.076
			s-0.078-0.12-0.078-0.21c0-0.091,0.037-0.161,0.11-0.213c0.074-0.051,0.174-0.077,0.3-0.077h0.188v-0.094
			c0-0.056-0.017-0.1-0.051-0.132c-0.034-0.033-0.082-0.049-0.144-0.049c-0.056,0-0.102,0.014-0.136,0.042
			c-0.035,0.028-0.053,0.062-0.053,0.103H4.357l-0.002-0.005c-0.004-0.069,0.029-0.133,0.098-0.19
			c0.069-0.057,0.158-0.086,0.268-0.086c0.107,0,0.194,0.027,0.26,0.082s0.099,0.134,0.099,0.237v0.458
			c0,0.034,0.001,0.066,0.005,0.099c0.004,0.031,0.01,0.062,0.02,0.093H4.925z M4.638,15.254c0.062,0,0.119-0.017,0.17-0.049
			c0.05-0.032,0.083-0.068,0.098-0.11V14.94H4.711c-0.069,0-0.125,0.018-0.167,0.053s-0.062,0.076-0.062,0.123
			c0,0.043,0.013,0.076,0.039,0.101S4.586,15.254,4.638,15.254z"/>
		<path fill="#FFFFFF" d="M6.737,15.211c-0.031,0.047-0.084,0.09-0.159,0.13c-0.075,0.039-0.173,0.059-0.292,0.059
			c-0.153,0-0.279-0.049-0.38-0.146c-0.1-0.099-0.149-0.225-0.149-0.38v-0.264c0-0.155,0.047-0.282,0.14-0.38
			s0.213-0.146,0.36-0.146c0.146,0,0.262,0.036,0.346,0.107c0.084,0.072,0.126,0.165,0.128,0.279l-0.002,0.005H6.563
			C6.559,14.4,6.53,14.339,6.479,14.291c-0.051-0.048-0.125-0.072-0.222-0.072c-0.098,0-0.177,0.037-0.236,0.11
			s-0.09,0.166-0.09,0.278v0.265c0,0.114,0.033,0.207,0.101,0.281c0.066,0.073,0.151,0.109,0.255,0.109
			c0.072,0,0.132-0.009,0.178-0.028c0.047-0.02,0.08-0.041,0.1-0.066v-0.29h-0.28v-0.136h0.454V15.211z"/>
		<path fill="#FFFFFF" d="M7.399,15.399c-0.133,0-0.238-0.044-0.316-0.133c-0.078-0.088-0.117-0.202-0.117-0.343v-0.039
			c0-0.135,0.04-0.248,0.121-0.338c0.08-0.09,0.176-0.135,0.286-0.135c0.128,0,0.225,0.039,0.291,0.116
			c0.065,0.077,0.098,0.181,0.098,0.31v0.107H7.146L7.143,14.95c0.002,0.091,0.024,0.166,0.069,0.225s0.107,0.088,0.188,0.088
			c0.059,0,0.109-0.008,0.154-0.024c0.044-0.017,0.082-0.04,0.114-0.069l0.068,0.112c-0.034,0.034-0.079,0.062-0.135,0.084
			C7.546,15.388,7.479,15.399,7.399,15.399z M7.373,14.549c-0.059,0-0.107,0.024-0.148,0.073s-0.066,0.109-0.076,0.184L7.15,14.81
			h0.438v-0.022c0-0.068-0.018-0.125-0.055-0.17C7.498,14.571,7.444,14.549,7.373,14.549z"/>
		<path fill="#FFFFFF" d="M8.509,15.128c0-0.038-0.015-0.069-0.044-0.095c-0.028-0.024-0.084-0.046-0.164-0.063
			c-0.116-0.025-0.203-0.06-0.261-0.103c-0.059-0.043-0.088-0.102-0.088-0.176c0-0.077,0.033-0.144,0.099-0.197
			c0.065-0.055,0.151-0.082,0.257-0.082c0.11,0,0.198,0.028,0.264,0.086c0.065,0.057,0.097,0.126,0.094,0.207L8.663,14.71H8.498
			c0-0.041-0.018-0.079-0.053-0.111c-0.034-0.033-0.081-0.05-0.138-0.05c-0.062,0-0.107,0.014-0.138,0.04
			c-0.029,0.027-0.045,0.06-0.045,0.098c0,0.037,0.014,0.067,0.04,0.089s0.08,0.041,0.161,0.058c0.12,0.026,0.209,0.062,0.268,0.105
			s0.088,0.104,0.088,0.178c0,0.085-0.034,0.152-0.103,0.205c-0.068,0.052-0.157,0.078-0.268,0.078
			c-0.121,0-0.217-0.031-0.286-0.093c-0.07-0.062-0.104-0.133-0.1-0.215l0.002-0.006h0.165c0.003,0.062,0.025,0.106,0.068,0.135
			s0.093,0.042,0.15,0.042c0.062,0,0.11-0.012,0.145-0.037C8.491,15.201,8.509,15.168,8.509,15.128z"/>
		<path fill="#FFFFFF" d="M9.126,14.2v0.229h0.18v0.129h-0.18v0.577c0,0.045,0.009,0.076,0.027,0.094
			c0.019,0.019,0.043,0.027,0.073,0.027c0.01,0,0.021-0.001,0.033-0.003c0.012-0.003,0.022-0.006,0.032-0.01l0.022,0.119
			c-0.013,0.011-0.031,0.02-0.057,0.026c-0.024,0.006-0.05,0.01-0.075,0.01c-0.07,0-0.126-0.021-0.168-0.063
			c-0.041-0.043-0.062-0.109-0.062-0.2v-0.577h-0.15V14.43h0.15V14.2H9.126z"/>
		<path fill="#FFFFFF" d="M9.706,14.187H9.533V14.01h0.173V14.187z M9.706,15.381H9.533V14.43h0.173V15.381z"/>
		<path fill="#FFFFFF" d="M9.933,14.896c0-0.141,0.038-0.257,0.114-0.348s0.18-0.137,0.311-0.137c0.132,0,0.236,0.046,0.312,0.137
			s0.114,0.207,0.114,0.348v0.02c0,0.142-0.038,0.258-0.114,0.348c-0.076,0.091-0.18,0.136-0.311,0.136
			c-0.132,0-0.235-0.045-0.312-0.136c-0.077-0.091-0.115-0.206-0.115-0.348V14.896z M10.106,14.915c0,0.102,0.021,0.185,0.063,0.25
			c0.042,0.065,0.105,0.098,0.189,0.098c0.082,0,0.146-0.032,0.188-0.098c0.043-0.065,0.064-0.148,0.064-0.25v-0.019
			c0-0.1-0.021-0.183-0.064-0.249c-0.043-0.065-0.106-0.099-0.189-0.099s-0.146,0.033-0.188,0.099
			c-0.043,0.066-0.063,0.149-0.063,0.249V14.915z M10.442,14.062h0.202l0.002,0.005l-0.237,0.229H10.28L10.442,14.062z"/>
		<path fill="#FFFFFF" d="M11.15,14.43l0.013,0.142c0.031-0.05,0.071-0.09,0.119-0.117c0.048-0.028,0.102-0.042,0.163-0.042
			c0.103,0,0.182,0.03,0.237,0.09c0.057,0.061,0.085,0.153,0.085,0.278v0.601h-0.173v-0.597c0-0.084-0.017-0.144-0.05-0.179
			s-0.084-0.053-0.151-0.053c-0.051,0-0.095,0.013-0.133,0.036c-0.038,0.024-0.069,0.057-0.092,0.099v0.693h-0.173V14.43H11.15z"/>
		<path fill="#FFFFFF" d="M12.427,14.923c0-0.153,0.033-0.276,0.099-0.37c0.064-0.094,0.156-0.141,0.274-0.141
			c0.056,0,0.104,0.011,0.147,0.031c0.044,0.021,0.08,0.05,0.11,0.09V14.01h0.174v1.371H13.09l-0.021-0.117
			c-0.031,0.045-0.069,0.078-0.114,0.102c-0.045,0.022-0.098,0.034-0.157,0.034c-0.116,0-0.207-0.042-0.272-0.126
			s-0.099-0.195-0.099-0.332V14.923z M12.601,14.941c0,0.096,0.02,0.173,0.059,0.23s0.1,0.087,0.183,0.087
			c0.052,0,0.095-0.012,0.13-0.035s0.064-0.057,0.086-0.099v-0.443c-0.021-0.04-0.051-0.071-0.086-0.094
			c-0.036-0.023-0.078-0.035-0.128-0.035c-0.083,0-0.145,0.034-0.185,0.104c-0.039,0.068-0.059,0.157-0.059,0.267V14.941z"/>
		<path fill="#FFFFFF" d="M13.885,15.399c-0.133,0-0.238-0.044-0.316-0.133c-0.078-0.088-0.117-0.202-0.117-0.343v-0.039
			c0-0.135,0.04-0.248,0.121-0.338c0.08-0.09,0.176-0.135,0.286-0.135c0.128,0,0.225,0.039,0.291,0.116
			c0.065,0.077,0.098,0.181,0.098,0.31v0.107h-0.616l-0.003,0.005c0.002,0.091,0.024,0.166,0.069,0.225s0.107,0.088,0.188,0.088
			c0.059,0,0.109-0.008,0.154-0.024c0.044-0.017,0.082-0.04,0.114-0.069l0.068,0.112c-0.034,0.034-0.079,0.062-0.135,0.084
			C14.031,15.388,13.964,15.399,13.885,15.399z M13.858,14.549c-0.059,0-0.107,0.024-0.148,0.073s-0.066,0.109-0.076,0.184
			l0.002,0.004h0.438v-0.022c0-0.068-0.018-0.125-0.055-0.17C13.983,14.571,13.93,14.549,13.858,14.549z"/>
		<path fill="#FFFFFF" d="M15.094,14.867v0.514h-0.173v-1.279h0.489c0.137,0,0.243,0.035,0.318,0.105s0.113,0.162,0.113,0.277
			c0,0.116-0.038,0.21-0.113,0.279s-0.182,0.104-0.318,0.104H15.094z M15.094,14.731h0.316c0.087,0,0.151-0.023,0.194-0.07
			c0.043-0.046,0.064-0.104,0.064-0.176c0-0.07-0.021-0.13-0.064-0.177c-0.043-0.048-0.107-0.071-0.194-0.071h-0.316V14.731z"/>
		<path fill="#FFFFFF" d="M16.492,14.583l-0.089-0.006c-0.046,0-0.085,0.012-0.116,0.033s-0.056,0.052-0.072,0.091v0.68h-0.173
			V14.43h0.154l0.017,0.139c0.027-0.049,0.061-0.087,0.1-0.115c0.04-0.027,0.085-0.041,0.137-0.041c0.013,0,0.025,0.001,0.037,0.003
			s0.021,0.005,0.029,0.007L16.492,14.583z"/>
		<path fill="#FFFFFF" d="M16.601,14.896c0-0.141,0.038-0.257,0.114-0.348s0.18-0.137,0.311-0.137c0.132,0,0.236,0.046,0.312,0.137
			s0.114,0.207,0.114,0.348v0.02c0,0.142-0.038,0.258-0.114,0.348c-0.076,0.091-0.18,0.136-0.311,0.136
			c-0.132,0-0.235-0.045-0.312-0.136c-0.077-0.091-0.115-0.206-0.115-0.348V14.896z M16.774,14.915c0,0.102,0.021,0.185,0.063,0.25
			c0.042,0.065,0.105,0.098,0.189,0.098c0.082,0,0.146-0.032,0.188-0.098c0.043-0.065,0.064-0.148,0.064-0.25v-0.019
			c0-0.1-0.021-0.183-0.064-0.249c-0.043-0.065-0.106-0.099-0.189-0.099s-0.146,0.033-0.188,0.099
			c-0.043,0.066-0.063,0.149-0.063,0.249V14.915z"/>
		<path fill="#FFFFFF" d="M18.052,15.263c0.057,0,0.107-0.018,0.151-0.053s0.065-0.079,0.065-0.131h0.155l0.002,0.006
			c0.003,0.082-0.033,0.154-0.109,0.219c-0.076,0.063-0.164,0.096-0.265,0.096c-0.139,0-0.244-0.045-0.317-0.136
			c-0.073-0.09-0.11-0.203-0.11-0.34v-0.037c0-0.135,0.037-0.248,0.11-0.339c0.074-0.09,0.18-0.136,0.317-0.136
			c0.111,0,0.202,0.033,0.272,0.099s0.104,0.146,0.103,0.241l-0.002,0.006h-0.156c0-0.059-0.021-0.107-0.062-0.148
			c-0.041-0.04-0.093-0.061-0.155-0.061c-0.091,0-0.156,0.032-0.195,0.098s-0.058,0.146-0.058,0.24v0.037
			c0,0.097,0.019,0.178,0.058,0.242C17.895,15.23,17.96,15.263,18.052,15.263z"/>
		<path fill="#FFFFFF" d="M19.015,15.399c-0.133,0-0.238-0.044-0.316-0.133c-0.078-0.088-0.117-0.202-0.117-0.343v-0.039
			c0-0.135,0.04-0.248,0.121-0.338c0.08-0.09,0.176-0.135,0.286-0.135c0.128,0,0.225,0.039,0.291,0.116
			c0.065,0.077,0.098,0.181,0.098,0.31v0.107h-0.616l-0.003,0.005c0.002,0.091,0.024,0.166,0.069,0.225s0.107,0.088,0.188,0.088
			c0.059,0,0.109-0.008,0.154-0.024c0.044-0.017,0.082-0.04,0.114-0.069l0.068,0.112c-0.034,0.034-0.079,0.062-0.135,0.084
			C19.161,15.388,19.094,15.399,19.015,15.399z M18.988,14.549c-0.059,0-0.107,0.024-0.148,0.073s-0.066,0.109-0.076,0.184
			l0.002,0.004h0.438v-0.022c0-0.068-0.018-0.125-0.055-0.17C19.113,14.571,19.06,14.549,18.988,14.549z"/>
		<path fill="#FFFFFF" d="M20.125,15.128c0-0.038-0.015-0.069-0.044-0.095c-0.028-0.024-0.084-0.046-0.164-0.063
			c-0.116-0.025-0.203-0.06-0.261-0.103c-0.059-0.043-0.088-0.102-0.088-0.176c0-0.077,0.033-0.144,0.099-0.197
			c0.065-0.055,0.151-0.082,0.257-0.082c0.11,0,0.198,0.028,0.264,0.086c0.065,0.057,0.097,0.126,0.094,0.207l-0.002,0.005h-0.165
			c0-0.041-0.018-0.079-0.053-0.111c-0.034-0.033-0.081-0.05-0.138-0.05c-0.062,0-0.107,0.014-0.138,0.04
			c-0.029,0.027-0.045,0.06-0.045,0.098c0,0.037,0.014,0.067,0.04,0.089s0.08,0.041,0.161,0.058c0.12,0.026,0.209,0.062,0.268,0.105
			s0.088,0.104,0.088,0.178c0,0.085-0.034,0.152-0.103,0.205c-0.068,0.052-0.157,0.078-0.268,0.078
			c-0.121,0-0.217-0.031-0.286-0.093c-0.07-0.062-0.104-0.133-0.1-0.215l0.002-0.006h0.165c0.003,0.062,0.025,0.106,0.068,0.135
			s0.093,0.042,0.15,0.042c0.062,0,0.11-0.012,0.145-0.037C20.107,15.201,20.125,15.168,20.125,15.128z"/>
		<path fill="#FFFFFF" d="M20.472,14.896c0-0.141,0.038-0.257,0.114-0.348s0.18-0.137,0.311-0.137c0.132,0,0.236,0.046,0.312,0.137
			s0.114,0.207,0.114,0.348v0.02c0,0.142-0.038,0.258-0.114,0.348c-0.076,0.091-0.18,0.136-0.311,0.136
			c-0.132,0-0.235-0.045-0.312-0.136c-0.077-0.091-0.115-0.206-0.115-0.348V14.896z M20.646,14.915c0,0.102,0.021,0.185,0.063,0.25
			c0.042,0.065,0.105,0.098,0.189,0.098c0.082,0,0.146-0.032,0.188-0.098c0.043-0.065,0.064-0.148,0.064-0.25v-0.019
			c0-0.1-0.021-0.183-0.064-0.249c-0.043-0.065-0.106-0.099-0.189-0.099s-0.146,0.033-0.188,0.099
			c-0.043,0.066-0.063,0.149-0.063,0.249V14.915z"/>
		<path fill="#FFFFFF" d="M22.089,15.128c0-0.038-0.015-0.069-0.044-0.095c-0.028-0.024-0.084-0.046-0.164-0.063
			c-0.116-0.025-0.203-0.06-0.261-0.103c-0.059-0.043-0.088-0.102-0.088-0.176c0-0.077,0.033-0.144,0.099-0.197
			c0.065-0.055,0.151-0.082,0.257-0.082c0.11,0,0.198,0.028,0.264,0.086c0.065,0.057,0.097,0.126,0.094,0.207l-0.002,0.005h-0.165
			c0-0.041-0.018-0.079-0.053-0.111c-0.034-0.033-0.081-0.05-0.138-0.05c-0.062,0-0.107,0.014-0.138,0.04
			c-0.029,0.027-0.045,0.06-0.045,0.098c0,0.037,0.014,0.067,0.04,0.089s0.08,0.041,0.161,0.058c0.12,0.026,0.209,0.062,0.268,0.105
			s0.088,0.104,0.088,0.178c0,0.085-0.034,0.152-0.103,0.205c-0.068,0.052-0.157,0.078-0.268,0.078
			c-0.121,0-0.217-0.031-0.286-0.093c-0.07-0.062-0.104-0.133-0.1-0.215l0.002-0.006h0.165c0.003,0.062,0.025,0.106,0.068,0.135
			s0.093,0.042,0.15,0.042c0.062,0,0.11-0.012,0.145-0.037C22.071,15.201,22.089,15.168,22.089,15.128z"/>
		<path fill="#FFFFFF" d="M22.885,14.923c0-0.153,0.033-0.276,0.099-0.37c0.064-0.094,0.156-0.141,0.274-0.141
			c0.056,0,0.104,0.011,0.147,0.031c0.044,0.021,0.08,0.05,0.11,0.09V14.01h0.174v1.371h-0.142l-0.021-0.117
			c-0.031,0.045-0.069,0.078-0.114,0.102c-0.045,0.022-0.098,0.034-0.157,0.034c-0.116,0-0.207-0.042-0.272-0.126
			s-0.099-0.195-0.099-0.332V14.923z M23.059,14.941c0,0.096,0.02,0.173,0.059,0.23s0.1,0.087,0.183,0.087
			c0.052,0,0.095-0.012,0.13-0.035s0.064-0.057,0.086-0.099v-0.443c-0.021-0.04-0.051-0.071-0.086-0.094
			c-0.036-0.023-0.078-0.035-0.128-0.035c-0.083,0-0.145,0.034-0.185,0.104c-0.039,0.068-0.059,0.157-0.059,0.267V14.941z"/>
		<path fill="#FFFFFF" d="M24.343,15.399c-0.133,0-0.238-0.044-0.316-0.133c-0.078-0.088-0.117-0.202-0.117-0.343v-0.039
			c0-0.135,0.04-0.248,0.121-0.338c0.08-0.09,0.176-0.135,0.286-0.135c0.128,0,0.225,0.039,0.291,0.116
			c0.065,0.077,0.098,0.181,0.098,0.31v0.107h-0.616l-0.003,0.005c0.002,0.091,0.024,0.166,0.069,0.225s0.107,0.088,0.188,0.088
			c0.059,0,0.109-0.008,0.154-0.024c0.044-0.017,0.082-0.04,0.114-0.069l0.068,0.112c-0.034,0.034-0.079,0.062-0.135,0.084
			C24.489,15.388,24.422,15.399,24.343,15.399z M24.316,14.549c-0.059,0-0.107,0.024-0.148,0.073s-0.066,0.109-0.076,0.184
			l0.002,0.004h0.438v-0.022c0-0.068-0.018-0.125-0.055-0.17C24.441,14.571,24.388,14.549,24.316,14.549z"/>
		<path fill="#FFFFFF" d="M26.347,15.381h-0.173l-0.616-0.989l-0.006,0.001v0.988h-0.173v-1.279h0.173l0.616,0.987l0.006-0.002
			v-0.985h0.173V15.381z"/>
		<path fill="#FFFFFF" d="M27.025,15.399c-0.133,0-0.238-0.044-0.316-0.133c-0.078-0.088-0.117-0.202-0.117-0.343v-0.039
			c0-0.135,0.04-0.248,0.121-0.338c0.08-0.09,0.176-0.135,0.286-0.135c0.128,0,0.225,0.039,0.291,0.116
			c0.065,0.077,0.098,0.181,0.098,0.31v0.107h-0.616l-0.003,0.005c0.002,0.091,0.024,0.166,0.069,0.225s0.107,0.088,0.188,0.088
			c0.059,0,0.109-0.008,0.154-0.024c0.044-0.017,0.082-0.04,0.114-0.069l0.068,0.112c-0.034,0.034-0.079,0.062-0.135,0.084
			C27.172,15.388,27.104,15.399,27.025,15.399z M26.999,14.549c-0.059,0-0.107,0.024-0.148,0.073s-0.066,0.109-0.076,0.184
			l0.002,0.004h0.438v-0.022c0-0.068-0.018-0.125-0.055-0.17C27.124,14.571,27.07,14.549,26.999,14.549z"/>
		<path fill="#FFFFFF" d="M27.545,14.923c0-0.153,0.033-0.276,0.101-0.37c0.066-0.094,0.159-0.141,0.276-0.141
			c0.061,0,0.113,0.013,0.159,0.037c0.046,0.023,0.084,0.059,0.114,0.104l0.021-0.124h0.138v0.956c0,0.122-0.035,0.216-0.106,0.281
			s-0.173,0.098-0.307,0.098c-0.046,0-0.095-0.006-0.148-0.019c-0.053-0.013-0.1-0.03-0.14-0.052l0.044-0.134
			c0.03,0.018,0.068,0.031,0.112,0.042s0.087,0.017,0.13,0.017c0.084,0,0.146-0.02,0.185-0.058c0.038-0.038,0.058-0.097,0.058-0.176
			v-0.106c-0.031,0.039-0.068,0.069-0.112,0.09c-0.043,0.021-0.093,0.03-0.149,0.03c-0.116,0-0.208-0.042-0.274-0.127
			c-0.067-0.084-0.101-0.194-0.101-0.331V14.923z M27.718,14.941c0,0.096,0.021,0.172,0.061,0.23
			c0.041,0.058,0.103,0.087,0.185,0.087c0.053,0,0.096-0.012,0.131-0.036c0.035-0.023,0.064-0.057,0.088-0.101v-0.438
			c-0.022-0.04-0.052-0.072-0.088-0.096c-0.035-0.024-0.078-0.036-0.129-0.036c-0.082,0-0.145,0.035-0.186,0.104
			c-0.041,0.069-0.062,0.158-0.062,0.267V14.941z"/>
		<path fill="#FFFFFF" d="M28.565,14.896c0-0.141,0.038-0.257,0.114-0.348s0.18-0.137,0.311-0.137c0.132,0,0.236,0.046,0.312,0.137
			s0.114,0.207,0.114,0.348v0.02c0,0.142-0.038,0.258-0.114,0.348c-0.076,0.091-0.18,0.136-0.311,0.136
			c-0.132,0-0.235-0.045-0.312-0.136c-0.077-0.091-0.115-0.206-0.115-0.348V14.896z M28.739,14.915c0,0.102,0.021,0.185,0.063,0.25
			c0.042,0.065,0.105,0.098,0.189,0.098c0.082,0,0.146-0.032,0.188-0.098c0.043-0.065,0.064-0.148,0.064-0.25v-0.019
			c0-0.1-0.021-0.183-0.064-0.249c-0.043-0.065-0.106-0.099-0.189-0.099s-0.146,0.033-0.188,0.099
			c-0.043,0.066-0.063,0.149-0.063,0.249V14.915z"/>
		<path fill="#FFFFFF" d="M30.016,15.263c0.057,0,0.107-0.018,0.151-0.053s0.065-0.079,0.065-0.131h0.155l0.002,0.006
			c0.003,0.082-0.033,0.154-0.109,0.219c-0.076,0.063-0.164,0.096-0.265,0.096c-0.139,0-0.244-0.045-0.317-0.136
			c-0.073-0.09-0.11-0.203-0.11-0.34v-0.037c0-0.135,0.037-0.248,0.11-0.339c0.074-0.09,0.18-0.136,0.317-0.136
			c0.111,0,0.202,0.033,0.272,0.099s0.104,0.146,0.103,0.241l-0.002,0.006h-0.156c0-0.059-0.021-0.107-0.062-0.148
			c-0.041-0.04-0.093-0.061-0.155-0.061c-0.091,0-0.156,0.032-0.195,0.098s-0.058,0.146-0.058,0.24v0.037
			c0,0.097,0.019,0.178,0.058,0.242C29.858,15.23,29.924,15.263,30.016,15.263z"/>
		<path fill="#FFFFFF" d="M30.771,14.187h-0.173V14.01h0.173V14.187z M30.771,15.381h-0.173V14.43h0.173V15.381z"/>
		<path fill="#FFFFFF" d="M30.997,14.896c0-0.141,0.038-0.257,0.114-0.348s0.18-0.137,0.311-0.137c0.132,0,0.236,0.046,0.312,0.137
			s0.114,0.207,0.114,0.348v0.02c0,0.142-0.038,0.258-0.114,0.348c-0.076,0.091-0.18,0.136-0.311,0.136
			c-0.132,0-0.235-0.045-0.312-0.136c-0.077-0.091-0.115-0.206-0.115-0.348V14.896z M31.171,14.915c0,0.102,0.021,0.185,0.063,0.25
			c0.042,0.065,0.105,0.098,0.189,0.098c0.082,0,0.146-0.032,0.188-0.098c0.043-0.065,0.064-0.148,0.064-0.25v-0.019
			c0-0.1-0.021-0.183-0.064-0.249c-0.043-0.065-0.106-0.099-0.189-0.099s-0.146,0.033-0.188,0.099
			c-0.043,0.066-0.063,0.149-0.063,0.249V14.915z"/>
	</g>
</g>
</svg>
