<?xml version="1.0" encoding="utf-8"?>
<!-- Generator: Adobe Illustrator 16.0.0, SVG Export Plug-In . SVG Version: 6.00 Build 0)  -->
<!DOCTYPE svg PUBLIC "-//W3C//DTD SVG 1.1//EN" "http://www.w3.org/Graphics/SVG/1.1/DTD/svg11.dtd">
<svg version="1.1" id="Capa_2" xmlns="http://www.w3.org/2000/svg" xmlns:xlink="http://www.w3.org/1999/xlink" x="0px" y="0px"
	 width="22.677px" height="22.677px" viewBox="-2.271 -2.271 22.677 22.677" enable-background="new -2.271 -2.271 22.677 22.677"
	 xml:space="preserve">
<g>
	<rect x="-2.224" y="12.548" opacity="0.65" fill="#FFFFFF" width="22.614" height="0.075"/>
	<g opacity="0.85">
		<g>
			<g>
				<path fill="#FFFFFF" d="M5.256,16.08c0.161-0.027,0.387-0.049,0.705-0.049c0.321,0,0.553,0.062,0.708,0.188
					c0.148,0.112,0.243,0.305,0.243,0.53c0,0.229-0.071,0.421-0.209,0.547C6.524,17.462,6.257,17.54,5.95,17.54
					c-0.068,0-0.129-0.004-0.178-0.014v0.828H5.256V16.08z M5.772,17.126c0.045,0.011,0.099,0.013,0.174,0.013
					c0.277,0,0.449-0.139,0.449-0.371c0-0.213-0.145-0.34-0.407-0.34c-0.106,0-0.178,0.009-0.216,0.019V17.126z"/>
				<path fill="#FFFFFF" d="M7.158,16.083c0.168-0.03,0.414-0.052,0.694-0.052c0.341,0,0.582,0.052,0.747,0.185
					c0.14,0.109,0.215,0.271,0.215,0.482c0,0.292-0.209,0.492-0.407,0.564v0.011c0.161,0.065,0.25,0.216,0.308,0.427
					c0.072,0.265,0.141,0.565,0.185,0.654H8.366c-0.035-0.066-0.093-0.254-0.158-0.538c-0.064-0.29-0.165-0.365-0.379-0.369H7.674
					v0.907H7.158V16.083z M7.674,17.071H7.88c0.26,0,0.414-0.13,0.414-0.332c0-0.209-0.144-0.316-0.383-0.316
					c-0.127,0-0.199,0.005-0.237,0.016V17.071z"/>
				<path fill="#FFFFFF" d="M10.066,18.392c-0.682,0-1.086-0.518-1.086-1.173c0-0.691,0.445-1.207,1.123-1.207
					c0.708,0,1.094,0.53,1.094,1.165c0,0.76-0.453,1.215-1.128,1.215H10.066z M10.09,17.978c0.351,0,0.554-0.331,0.554-0.783
					c0-0.415-0.195-0.769-0.554-0.769c-0.36,0-0.562,0.346-0.562,0.778c0,0.435,0.21,0.773,0.559,0.773H10.09z"/>
				<path fill="#FFFFFF" d="M13.144,18.292c-0.092,0.045-0.312,0.1-0.587,0.1c-0.799,0-1.209-0.5-1.209-1.159
					c0-0.786,0.56-1.221,1.259-1.221c0.271,0,0.476,0.054,0.567,0.102l-0.107,0.411c-0.104-0.045-0.25-0.086-0.439-0.086
					c-0.411,0-0.732,0.251-0.732,0.766c0,0.463,0.274,0.753,0.734,0.753c0.162,0,0.334-0.03,0.44-0.076L13.144,18.292z"/>
				<path fill="#FFFFFF" d="M14.775,17.379h-0.851v0.548h0.95v0.428h-1.469v-2.306h1.42v0.428h-0.901v0.479h0.851V17.379z"/>
				<path fill="#FFFFFF" d="M15.161,17.82c0.136,0.071,0.355,0.145,0.578,0.145c0.239,0,0.366-0.101,0.366-0.255
					c0-0.14-0.11-0.225-0.388-0.321c-0.383-0.136-0.635-0.349-0.635-0.688c0-0.394,0.33-0.689,0.872-0.689
					c0.264,0,0.451,0.051,0.587,0.115l-0.115,0.418c-0.089-0.044-0.256-0.108-0.479-0.108c-0.226,0-0.334,0.105-0.334,0.222
					c0,0.146,0.125,0.21,0.425,0.329c0.407,0.149,0.598,0.361,0.598,0.689c0,0.387-0.296,0.715-0.929,0.715
					c-0.263,0-0.522-0.072-0.653-0.144L15.161,17.82z"/>
				<path fill="#FFFFFF" d="M16.922,17.82c0.137,0.071,0.357,0.145,0.578,0.145c0.24,0,0.366-0.101,0.366-0.255
					c0-0.14-0.108-0.225-0.387-0.321c-0.381-0.136-0.636-0.349-0.636-0.688c0-0.394,0.333-0.689,0.871-0.689
					c0.264,0,0.453,0.051,0.589,0.115l-0.116,0.418c-0.088-0.044-0.256-0.108-0.478-0.108c-0.227,0-0.337,0.105-0.337,0.222
					c0,0.146,0.127,0.21,0.428,0.329c0.407,0.149,0.596,0.361,0.596,0.689c0,0.387-0.295,0.715-0.928,0.715
					c-0.262,0-0.521-0.072-0.653-0.144L16.922,17.82z"/>
			</g>
			<g>
				<path fill="#FFFFFF" d="M5.264,15.619c0.073,0.037,0.189,0.076,0.307,0.076c0.126,0,0.194-0.052,0.194-0.135
					c0-0.072-0.058-0.118-0.204-0.171c-0.204-0.072-0.339-0.187-0.339-0.364c0-0.21,0.176-0.368,0.464-0.368
					c0.14,0,0.239,0.028,0.311,0.062l-0.061,0.222c-0.047-0.022-0.137-0.06-0.254-0.06c-0.12,0-0.179,0.058-0.179,0.119
					c0,0.08,0.068,0.113,0.227,0.175c0.216,0.08,0.317,0.191,0.317,0.366c0,0.206-0.157,0.379-0.493,0.379
					c-0.14,0-0.278-0.037-0.348-0.075L5.264,15.619z"/>
				<path fill="#FFFFFF" d="M6.389,15.901l-0.291-1.223h0.296l0.092,0.503c0.028,0.146,0.054,0.307,0.074,0.429h0.003
					c0.021-0.132,0.05-0.281,0.08-0.432l0.103-0.5h0.294l0.099,0.515c0.026,0.144,0.046,0.275,0.064,0.412h0.004
					c0.018-0.137,0.046-0.28,0.071-0.427l0.1-0.5h0.282l-0.316,1.223H7.045L6.94,15.375c-0.022-0.124-0.043-0.237-0.058-0.377H6.88
					c-0.022,0.139-0.042,0.253-0.072,0.377l-0.116,0.526H6.389z"/>
				<path fill="#FFFFFF" d="M7.759,14.695c0.073-0.014,0.218-0.025,0.358-0.025c0.167,0,0.272,0.016,0.361,0.067
					c0.085,0.046,0.146,0.129,0.146,0.243c0,0.105-0.065,0.205-0.2,0.259v0.004c0.139,0.036,0.242,0.143,0.242,0.303
					c0,0.11-0.05,0.198-0.127,0.258c-0.087,0.071-0.236,0.113-0.48,0.113c-0.137,0-0.238-0.011-0.3-0.021V14.695z M8.033,15.163
					h0.091c0.148,0,0.224-0.061,0.224-0.149c0-0.094-0.071-0.144-0.196-0.144c-0.062,0-0.097,0.004-0.119,0.009V15.163z
					 M8.033,15.706c0.027,0.007,0.061,0.007,0.109,0.007c0.124,0,0.235-0.05,0.235-0.18c0-0.122-0.111-0.171-0.248-0.171H8.033
					V15.706z"/>
			</g>
			<path fill="#FFFFFF" d="M2.007,16.954l0.305-0.163c-0.001-0.176-0.03-0.344-0.085-0.501l-0.339-0.048
				c-0.025-0.051-0.053-0.101-0.084-0.147l0.128-0.32c-0.109-0.127-0.24-0.237-0.385-0.325l-0.291,0.183
				c-0.053-0.024-0.109-0.045-0.165-0.062l-0.106-0.327c-0.083-0.014-0.167-0.021-0.252-0.021c-0.086,0-0.171,0.007-0.253,0.021
				L0.376,15.57c-0.058,0.017-0.113,0.037-0.167,0.062l-0.291-0.183c-0.145,0.088-0.275,0.198-0.386,0.325l0.129,0.32
				c-0.031,0.047-0.06,0.097-0.084,0.147L-0.76,16.29c-0.054,0.157-0.084,0.325-0.085,0.501l0.306,0.163
				c0.006,0.055,0.015,0.105,0.029,0.158l-0.23,0.253c0.062,0.163,0.15,0.312,0.26,0.445l0.337-0.074
				c0.037,0.035,0.076,0.067,0.118,0.099l-0.012,0.344c0.148,0.082,0.312,0.143,0.485,0.176l0.211-0.272
				c0.026,0.001,0.05,0.002,0.076,0.002c0.025,0,0.05-0.001,0.074-0.002l0.212,0.272c0.174-0.033,0.337-0.094,0.486-0.176
				l-0.013-0.344c0.041-0.031,0.08-0.063,0.117-0.099l0.337,0.074c0.11-0.133,0.198-0.282,0.259-0.445l-0.229-0.253
				C1.991,17.06,2,17.009,2.007,16.954z"/>
			<path fill="#FFFFFF" d="M4.005,17.496l0.162,0.146c-0.024,0.089-0.06,0.173-0.105,0.249l-0.219-0.01
				c-0.042,0.057-0.094,0.107-0.15,0.152l0.011,0.217c-0.078,0.046-0.163,0.08-0.252,0.104l-0.146-0.163
				c-0.035,0.006-0.07,0.007-0.106,0.007c-0.037,0-0.071-0.001-0.107-0.007l-0.146,0.162c-0.089-0.023-0.173-0.059-0.251-0.104
				l0.012-0.217c-0.057-0.045-0.107-0.097-0.15-0.153l-0.219,0.011c-0.045-0.078-0.08-0.161-0.104-0.25l0.163-0.146
				c-0.005-0.035-0.008-0.072-0.008-0.109c0-0.035,0.002-0.07,0.008-0.104l-0.162-0.146c0.024-0.089,0.059-0.174,0.105-0.252
				l0.218,0.011c0.043-0.058,0.094-0.107,0.15-0.151l-0.01-0.216c0.078-0.047,0.162-0.081,0.251-0.106l0.147,0.164
				c0.034-0.005,0.07-0.008,0.106-0.008c0.037,0,0.072,0.003,0.107,0.008l0.146-0.161c0.09,0.023,0.175,0.059,0.25,0.104
				l-0.011,0.219c0.058,0.043,0.108,0.093,0.151,0.149l0.218-0.01c0.045,0.078,0.081,0.163,0.104,0.252l-0.162,0.146
				c0.004,0.035,0.007,0.071,0.007,0.106S4.009,17.462,4.005,17.496z"/>
			<path fill="#FFFFFF" d="M2.936,16.179c0.021-0.014,0.042-0.028,0.062-0.043l0.173,0.035c0.081-0.089,0.136-0.193,0.166-0.307
				l-0.125-0.126c0.005-0.05,0.005-0.1-0.003-0.149l0.117-0.133c-0.016-0.053-0.04-0.109-0.072-0.159
				c-0.032-0.051-0.068-0.097-0.11-0.137l-0.17,0.042c-0.041-0.028-0.086-0.051-0.132-0.069l-0.056-0.169
				c-0.114-0.024-0.233-0.022-0.349,0.009l-0.047,0.17c-0.022,0.011-0.044,0.021-0.065,0.036c-0.022,0.012-0.042,0.026-0.062,0.043
				L2.09,15.184c-0.08,0.09-0.137,0.194-0.166,0.308l0.125,0.127c-0.006,0.049-0.005,0.099,0.002,0.149l-0.116,0.131
				c0.017,0.057,0.041,0.109,0.072,0.161s0.068,0.097,0.109,0.137l0.171-0.044c0.041,0.029,0.085,0.053,0.131,0.071l0.056,0.167
				c0.114,0.027,0.232,0.023,0.349-0.007l0.046-0.171C2.892,16.201,2.915,16.191,2.936,16.179z"/>
			<g>
				<path fill="#FFFFFF" d="M18.854,17.915c0.041,0,0.08,0.011,0.119,0.031c0.037,0.021,0.065,0.05,0.089,0.089
					c0.021,0.038,0.031,0.077,0.031,0.118c0,0.04-0.011,0.08-0.031,0.117c-0.022,0.037-0.05,0.067-0.087,0.089
					c-0.039,0.021-0.078,0.031-0.121,0.031c-0.04,0-0.079-0.01-0.117-0.031c-0.036-0.021-0.067-0.052-0.088-0.089
					s-0.03-0.077-0.03-0.117c0-0.041,0.01-0.08,0.03-0.118c0.022-0.039,0.053-0.068,0.089-0.089
					C18.776,17.926,18.815,17.915,18.854,17.915z M18.854,17.954c-0.031,0-0.062,0.01-0.097,0.025
					c-0.03,0.018-0.054,0.043-0.072,0.075c-0.018,0.03-0.027,0.064-0.027,0.099s0.01,0.066,0.027,0.098
					c0.017,0.031,0.041,0.056,0.071,0.074c0.032,0.018,0.065,0.026,0.098,0.026c0.036,0,0.068-0.009,0.1-0.026
					c0.032-0.019,0.056-0.043,0.073-0.074s0.027-0.063,0.027-0.098s-0.01-0.068-0.027-0.099c-0.019-0.032-0.042-0.058-0.073-0.075
					C18.922,17.964,18.89,17.954,18.854,17.954z M18.751,18.284v-0.256h0.089c0.03,0,0.052,0.004,0.065,0.008
					c0.013,0.005,0.024,0.012,0.031,0.024c0.008,0.013,0.013,0.024,0.013,0.038c0,0.02-0.008,0.034-0.02,0.049
					c-0.015,0.013-0.031,0.021-0.054,0.023c0.01,0.003,0.017,0.008,0.022,0.012c0.011,0.011,0.021,0.028,0.036,0.053l0.032,0.049
					h-0.05l-0.024-0.041c-0.017-0.031-0.031-0.051-0.041-0.06c-0.009-0.005-0.02-0.007-0.035-0.007h-0.023v0.107H18.751z
					 M18.793,18.141h0.05c0.024,0,0.04-0.003,0.05-0.01c0.008-0.009,0.013-0.018,0.013-0.029c0-0.008-0.003-0.015-0.007-0.021
					c-0.005-0.006-0.009-0.01-0.018-0.014c-0.008-0.003-0.021-0.004-0.04-0.004h-0.048V18.141z"/>
			</g>
		</g>
	</g>
	<path opacity="0.65" fill-rule="evenodd" clip-rule="evenodd" fill="#FFFFFF" d="M6.208,4.666c0-0.041,0-0.072,0-0.102
		c0-0.637,0.002-1.275-0.002-1.91c-0.001-0.697,0.198-1.322,0.648-1.86C7.345,0.209,7.96-0.162,8.728-0.249
		c0.688-0.077,1.34,0.045,1.918,0.439c0.724,0.492,1.18,1.163,1.296,2.043c0.015,0.122,0.021,0.245,0.021,0.368
		c-0.003,0.234-0.179,0.411-0.412,0.416c-0.129,0.002-0.259,0.001-0.387,0c-0.257-0.002-0.428-0.175-0.433-0.431
		c-0.013-0.602-0.283-1.064-0.785-1.382C9.282,0.784,8.42,0.91,7.878,1.492c-0.292,0.312-0.437,0.684-0.437,1.11
		c-0.001,0.651,0,1.303,0,1.953c0,0.034,0,0.068,0,0.111c0.044,0,0.081,0,0.117,0c1.522,0,3.043,0,4.566-0.001
		c0.269,0,0.479,0.103,0.597,0.349c0.041,0.087,0.062,0.192,0.062,0.29c0.006,1.218,0.006,2.438,0.004,3.658
		c-0.002,0.375-0.262,0.637-0.637,0.637c-2.041,0-4.084,0-6.126,0c-0.38,0-0.638-0.264-0.638-0.645
		c-0.001-1.214-0.001-2.428,0-3.642c0-0.386,0.258-0.642,0.645-0.646C6.085,4.665,6.138,4.666,6.208,4.666z"/>
</g>
</svg>
