<?xml version="1.0" encoding="utf-8"?>
<!-- Generator: Adobe Illustrator 16.0.0, SVG Export Plug-In . SVG Version: 6.00 Build 0)  -->
<!DOCTYPE svg PUBLIC "-//W3C//DTD SVG 1.1//EN" "http://www.w3.org/Graphics/SVG/1.1/DTD/svg11.dtd">
<svg version="1.1" id="Capa_2" xmlns="http://www.w3.org/2000/svg" xmlns:xlink="http://www.w3.org/1999/xlink" x="0px" y="0px"
	 width="22.677px" height="22.677px" viewBox="-2.271 -2.271 22.677 22.677" enable-background="new -2.271 -2.271 22.677 22.677"
	 xml:space="preserve">
<g>
	<g opacity="0.85">
		<g>
			<path fill="#FFFFFF" d="M8.573,17.536h0.541v0.575H8.573v0.951H7.861v-0.951H6.024l-0.018-0.435l1.832-2.894h0.734V17.536z
				 M6.712,17.536h1.149v-1.735l-0.018-0.006l-0.06,0.125L6.712,17.536z"/>
			<path fill="#FFFFFF" d="M12.378,17.414c0,0.557-0.125,0.981-0.377,1.271c-0.252,0.293-0.594,0.44-1.024,0.44
				c-0.432,0-0.775-0.147-1.028-0.44c-0.252-0.29-0.38-0.715-0.38-1.271v-0.979c0-0.556,0.127-0.979,0.378-1.273
				c0.252-0.294,0.592-0.441,1.024-0.441c0.432,0,0.774,0.147,1.026,0.441c0.253,0.294,0.381,0.718,0.381,1.273V17.414z
				 M11.661,16.325c0-0.351-0.057-0.608-0.175-0.777c-0.118-0.168-0.288-0.254-0.516-0.254c-0.225,0-0.396,0.086-0.512,0.254
				c-0.115,0.169-0.176,0.427-0.176,0.777v1.189c0,0.353,0.061,0.614,0.178,0.782c0.118,0.171,0.291,0.254,0.516,0.254
				c0.228,0,0.397-0.083,0.512-0.252c0.116-0.168,0.173-0.43,0.173-0.784V16.325z"/>
			<path fill="#FFFFFF" d="M15.416,17.536h0.541v0.575h-0.541v0.951h-0.71v-0.951h-1.839l-0.018-0.435l1.831-2.894h0.735V17.536z
				 M13.556,17.536h1.15v-1.735l-0.019-0.006l-0.057,0.125L13.556,17.536z"/>
		</g>
		<g>
			<path fill="#FFFFFF" d="M0.89,15.492H0.328v0.404H0.98v0.174H0.113v-1.284h0.859v0.172H0.328v0.363H0.89V15.492z"/>
			<path fill="#FFFFFF" d="M1.375,15.537v0.533H1.16v-1.284h0.474c0.144,0,0.255,0.032,0.333,0.096
				c0.079,0.065,0.118,0.158,0.118,0.277c0,0.066-0.017,0.124-0.051,0.172c-0.035,0.049-0.085,0.089-0.151,0.115
				c0.073,0.022,0.125,0.06,0.157,0.113c0.031,0.051,0.047,0.116,0.047,0.191v0.106c0,0.037,0.005,0.075,0.014,0.11
				c0.009,0.035,0.025,0.063,0.047,0.082v0.021h-0.22c-0.023-0.02-0.039-0.05-0.045-0.093c-0.006-0.042-0.009-0.082-0.009-0.122
				v-0.104c0-0.063-0.02-0.117-0.057-0.157c-0.037-0.039-0.089-0.058-0.155-0.058H1.375z M1.375,15.366h0.25
				c0.085,0,0.148-0.017,0.188-0.051c0.04-0.032,0.06-0.081,0.06-0.149c0-0.065-0.02-0.116-0.059-0.152
				c-0.039-0.037-0.097-0.056-0.178-0.056h-0.26V15.366z"/>
			<path fill="#FFFFFF" d="M2.57,15.537v0.533H2.356v-1.284h0.474c0.144,0,0.254,0.032,0.333,0.096
				c0.078,0.065,0.118,0.158,0.118,0.277c0,0.066-0.017,0.124-0.051,0.172c-0.035,0.049-0.085,0.089-0.152,0.115
				c0.073,0.022,0.125,0.06,0.158,0.113c0.031,0.051,0.047,0.116,0.047,0.191v0.106c0,0.037,0.005,0.075,0.014,0.11
				c0.01,0.035,0.026,0.063,0.047,0.082v0.021H3.123c-0.022-0.02-0.039-0.05-0.045-0.093c-0.006-0.042-0.009-0.082-0.009-0.122
				v-0.104c0-0.063-0.02-0.117-0.057-0.157c-0.038-0.039-0.089-0.058-0.155-0.058H2.57z M2.57,15.366h0.25
				c0.085,0,0.148-0.017,0.187-0.051c0.041-0.032,0.06-0.081,0.06-0.149c0-0.065-0.019-0.116-0.058-0.152
				c-0.039-0.037-0.098-0.056-0.178-0.056H2.57V15.366z"/>
			<path fill="#FFFFFF" d="M4.553,15.543c0,0.158-0.049,0.287-0.147,0.391c-0.099,0.103-0.227,0.155-0.383,0.155
				c-0.154,0-0.28-0.053-0.376-0.155c-0.096-0.104-0.144-0.232-0.144-0.391v-0.231c0-0.155,0.048-0.285,0.144-0.388
				c0.096-0.105,0.222-0.156,0.375-0.156c0.157,0,0.284,0.051,0.383,0.156c0.099,0.103,0.148,0.232,0.148,0.388V15.543z
				 M4.34,15.311c0-0.107-0.029-0.194-0.085-0.263c-0.058-0.071-0.136-0.104-0.232-0.104c-0.095,0-0.169,0.033-0.224,0.104
				c-0.055,0.068-0.082,0.155-0.082,0.263v0.232c0,0.109,0.027,0.198,0.082,0.268c0.054,0.068,0.129,0.104,0.224,0.104
				c0.099,0,0.176-0.035,0.232-0.104c0.056-0.069,0.085-0.158,0.085-0.268V15.311z"/>
			<path fill="#FFFFFF" d="M4.999,15.537v0.533H4.786v-1.284H5.26c0.143,0,0.254,0.032,0.332,0.096
				c0.078,0.065,0.117,0.158,0.117,0.277c0,0.066-0.016,0.124-0.051,0.172c-0.035,0.049-0.084,0.089-0.151,0.115
				c0.073,0.022,0.125,0.06,0.157,0.113c0.031,0.051,0.047,0.116,0.047,0.191v0.106c0,0.037,0.005,0.075,0.014,0.11
				c0.01,0.035,0.026,0.063,0.047,0.082v0.021h-0.22c-0.023-0.02-0.039-0.05-0.046-0.093c-0.006-0.042-0.01-0.082-0.01-0.122v-0.104
				c0-0.063-0.02-0.117-0.057-0.157c-0.038-0.039-0.089-0.058-0.155-0.058H4.999z M4.999,15.366h0.249
				c0.086,0,0.148-0.017,0.187-0.051c0.04-0.032,0.06-0.081,0.06-0.149c0-0.065-0.02-0.116-0.058-0.152
				c-0.039-0.037-0.098-0.056-0.177-0.056H4.999V15.366z"/>
		</g>
	</g>
	<rect x="-2.24" y="12.631" opacity="0.65" fill="#FFFFFF" width="22.578" height="0.075"/>
	<g opacity="0.65">
		<g>
			<g>
				<path fill-rule="evenodd" clip-rule="evenodd" fill="#FFFFFF" d="M14.278,2.471c-0.116-0.04-0.233-0.081-0.352-0.118
					c-0.053-0.016-0.081-0.05-0.083-0.103c-0.001-0.046,0.002-0.093,0.015-0.138c0.03-0.11,0.07-0.221,0.143-0.315
					c0.101-0.132,0.237-0.217,0.383-0.286c0.137-0.063,0.278-0.106,0.428-0.123c0.104-0.013,0.206-0.028,0.301-0.075
					c0.195-0.099,0.254-0.327,0.114-0.498c-0.168-0.212-0.396-0.288-0.659-0.235c-0.07,0.014-0.136,0.053-0.2,0.088
					c-0.083,0.047-0.167,0.099-0.249,0.15c-0.079,0.047-0.148,0.035-0.202-0.042c-0.12-0.178-0.243-0.357-0.363-0.538
					c-0.048-0.07-0.037-0.133,0.026-0.186c0.252-0.214,0.535-0.368,0.867-0.421c0.227-0.037,0.447-0.019,0.671,0.033
					c0.424,0.1,0.749,0.344,0.989,0.701c0.188,0.282,0.28,0.595,0.209,0.933c-0.073,0.347-0.261,0.613-0.6,0.753
					c-0.138,0.058-0.28,0.094-0.428,0.119c-0.134,0.024-0.254,0.078-0.349,0.173c-0.05,0.046-0.09,0.1-0.122,0.156
					c-0.049,0.084-0.11,0.114-0.201,0.084C14.502,2.546,14.392,2.508,14.278,2.471z"/>
				<path fill-rule="evenodd" clip-rule="evenodd" fill="#FFFFFF" d="M14.551,3.338c-0.04,0.117-0.078,0.235-0.117,0.352
					c-0.031,0.091-0.1,0.125-0.191,0.094c-0.237-0.079-0.474-0.158-0.71-0.237c-0.089-0.03-0.124-0.099-0.094-0.188
					c0.079-0.237,0.157-0.475,0.238-0.712c0.031-0.09,0.096-0.123,0.188-0.093c0.236,0.079,0.476,0.159,0.712,0.238
					c0.09,0.031,0.124,0.099,0.094,0.19C14.631,3.101,14.591,3.219,14.551,3.338z"/>
			</g>
		</g>
		<g>
			<g>
				<path fill="#FFFFFF" d="M14.125,8.967L12.31,7.575c-0.239,0.387-0.521,0.745-0.848,1.069c-0.026,0.028-0.054,0.054-0.082,0.08
					l1.845,1.413c0.136,0.104,0.293,0.152,0.449,0.152c0.222,0,0.441-0.099,0.588-0.288C14.508,9.679,14.448,9.215,14.125,8.967z"/>
				<path fill="#FFFFFF" d="M5.181,9.561c0.678,0.285,1.398,0.431,2.138,0.431c0.741,0,1.461-0.146,2.136-0.431
					c0.604-0.257,1.151-0.613,1.628-1.062c0.041-0.038,0.082-0.076,0.119-0.114c0.312-0.313,0.585-0.661,0.813-1.034
					c0.137-0.229,0.259-0.465,0.362-0.711c0.286-0.678,0.43-1.397,0.43-2.137c0-0.741-0.144-1.462-0.43-2.138
					c-0.038-0.092-0.079-0.183-0.124-0.272c-0.266-0.545-0.62-1.039-1.054-1.474c-0.27-0.271-0.564-0.51-0.882-0.716
					C10.045-0.276,9.758-0.43,9.454-0.559C8.777-0.846,8.058-0.99,7.317-0.99c-0.741,0-1.461,0.144-2.137,0.431
					C4.883-0.433,4.6-0.283,4.331-0.108C4.009,0.1,3.709,0.342,3.435,0.617C3.002,1.05,2.649,1.544,2.381,2.091
					C2.338,2.18,2.296,2.271,2.257,2.363C1.97,3.04,1.826,3.76,1.826,4.5c0,0.739,0.144,1.46,0.431,2.137
					c0.276,0.654,0.672,1.24,1.178,1.745C3.939,8.887,4.527,9.282,5.181,9.561z M4.243,2.091c0.029-0.037,0.059-0.074,0.09-0.109
					c0.071-0.084,0.145-0.166,0.225-0.244C5.295,1,6.276,0.594,7.321,0.594S9.345,1,10.084,1.738C10.165,1.822,10.245,1.91,10.322,2
					c0.024,0.031,0.049,0.061,0.076,0.093c0.537,0.686,0.829,1.524,0.829,2.41c0,1.044-0.404,2.024-1.144,2.763
					c-0.74,0.739-1.721,1.145-2.763,1.145c-1.043,0-2.025-0.405-2.762-1.145C3.82,6.526,3.414,5.546,3.414,4.502
					C3.413,3.615,3.705,2.777,4.243,2.091z"/>
			</g>
			<g>
				<defs>
					
						<rect id="SVGID_1_" x="7.032" y="1.805" transform="matrix(0.707 0.7073 -0.7073 0.707 6.1325 -4.6121)" width="3.199" height="6.579"/>
				</defs>
				<clipPath id="SVGID_2_">
					<use xlink:href="#SVGID_1_"  overflow="visible"/>
				</clipPath>
				<path clip-path="url(#SVGID_2_)" fill-rule="evenodd" clip-rule="evenodd" fill="#FFFFFF" d="M9.562,5.079
					c-0.055,0.128-0.107,0.25-0.155,0.373c-0.006,0.02-0.001,0.05,0.011,0.068c0.13,0.181,0.263,0.362,0.396,0.542
					c0.07,0.096,0.067,0.16-0.018,0.245c-0.199,0.2-0.399,0.399-0.6,0.599c-0.081,0.082-0.146,0.088-0.241,0.02
					C8.771,6.79,8.585,6.654,8.403,6.517C8.377,6.498,8.36,6.5,8.334,6.511c-0.098,0.042-0.198,0.082-0.298,0.12
					C8.003,6.643,7.99,6.659,7.986,6.692C7.96,6.905,7.932,7.119,7.907,7.333C7.892,7.452,7.859,7.49,7.741,7.502
					c-0.292,0.03-0.586,0.032-0.879,0.007c-0.02-0.002-0.04-0.005-0.06-0.009C6.688,7.479,6.651,7.439,6.637,7.324
					c-0.025-0.21-0.053-0.42-0.077-0.63c-0.004-0.037-0.017-0.056-0.053-0.07C6.417,6.592,6.329,6.56,6.245,6.518
					C6.193,6.491,6.161,6.501,6.12,6.533C5.945,6.665,5.769,6.795,5.591,6.921C5.487,6.995,5.433,6.985,5.342,6.894
					C5.144,6.696,4.945,6.497,4.747,6.299c-0.083-0.083-0.09-0.14-0.021-0.234c0.135-0.186,0.27-0.37,0.409-0.554
					c0.023-0.029,0.021-0.052,0.007-0.083C5.1,5.336,5.06,5.244,5.025,5.15C5.012,5.114,4.995,5.1,4.958,5.095
					C4.747,5.068,4.536,5.038,4.323,5.009C4.189,4.99,4.149,4.952,4.147,4.814c-0.003-0.273-0.002-0.546-0.002-0.82
					c0-0.023,0.005-0.046,0.007-0.069c0.015-0.108,0.059-0.156,0.167-0.171C4.43,3.737,4.543,3.725,4.654,3.71
					c0.102-0.013,0.203-0.025,0.304-0.042c0.018-0.002,0.039-0.022,0.046-0.039c0.049-0.111,0.096-0.225,0.141-0.337
					c0.007-0.019,0.006-0.048-0.004-0.062c-0.135-0.186-0.273-0.37-0.41-0.553C4.667,2.591,4.671,2.521,4.747,2.444
					c0.204-0.205,0.407-0.408,0.612-0.611c0.075-0.076,0.145-0.082,0.228-0.02c0.187,0.136,0.375,0.272,0.559,0.411
					C6.171,2.245,6.19,2.242,6.218,2.23c0.099-0.042,0.198-0.083,0.298-0.121c0.032-0.012,0.046-0.027,0.05-0.061
					C6.592,1.839,6.621,1.63,6.645,1.42C6.66,1.289,6.689,1.253,6.819,1.24C7.11,1.211,7.401,1.209,7.692,1.235
					c0.026,0.002,0.051,0.006,0.076,0.012c0.094,0.021,0.127,0.054,0.139,0.15C7.936,1.615,7.964,1.831,7.99,2.048
					C7.994,2.089,8.01,2.106,8.049,2.12C8.135,2.149,8.223,2.179,8.3,2.223c0.06,0.032,0.094,0.015,0.139-0.02
					c0.172-0.129,0.345-0.257,0.52-0.38c0.105-0.074,0.158-0.065,0.249,0.026c0.198,0.198,0.394,0.395,0.592,0.592
					C9.89,2.532,9.895,2.585,9.819,2.688C9.688,2.869,9.556,3.051,9.42,3.229C9.395,3.263,9.397,3.287,9.413,3.322
					c0.041,0.091,0.08,0.184,0.115,0.276c0.013,0.033,0.027,0.045,0.061,0.049c0.226,0.03,0.45,0.063,0.677,0.095
					c0.08,0.011,0.135,0.059,0.137,0.138c0.015,0.315,0.029,0.63-0.006,0.945c-0.013,0.104-0.053,0.147-0.16,0.162
					c-0.211,0.031-0.422,0.056-0.634,0.084C9.587,5.074,9.571,5.078,9.562,5.079z M8.019,3.63c-0.413-0.414-1.074-0.414-1.488,0
					c-0.41,0.41-0.41,1.073,0.002,1.484c0.413,0.414,1.076,0.413,1.488-0.001C8.432,4.7,8.431,4.042,8.019,3.63z"/>
			</g>
		</g>
	</g>
</g>
</svg>
