<?xml version="1.0" encoding="utf-8"?>
<!-- Generator: Adobe Illustrator 16.0.0, SVG Export Plug-In . SVG Version: 6.00 Build 0)  -->
<!DOCTYPE svg PUBLIC "-//W3C//DTD SVG 1.1//EN" "http://www.w3.org/Graphics/SVG/1.1/DTD/svg11.dtd">
<svg version="1.1" id="Capa_2" xmlns="http://www.w3.org/2000/svg" xmlns:xlink="http://www.w3.org/1999/xlink" x="0px" y="0px"
	 width="22.677px" height="22.677px" viewBox="-2.271 -2.271 22.677 22.677" enable-background="new -2.271 -2.271 22.677 22.677"
	 xml:space="preserve">
<g>
	<g opacity="0.85">
		<g>
			<path fill="#FFFFFF" d="M6.293,18.374l0.249-2.373h2.267v0.619H7.135l-0.127,1.077c0.084-0.063,0.183-0.116,0.293-0.155
				c0.11-0.041,0.234-0.063,0.375-0.066c0.403-0.003,0.72,0.123,0.945,0.383c0.229,0.259,0.344,0.615,0.344,1.064
				c0,0.422-0.121,0.766-0.363,1.031c-0.238,0.267-0.585,0.402-1.038,0.402c-0.378,0-0.699-0.104-0.959-0.312
				c-0.26-0.208-0.386-0.501-0.374-0.884l0.004-0.015l0.67-0.023c0,0.208,0.061,0.368,0.183,0.483
				c0.121,0.117,0.279,0.174,0.476,0.174c0.221,0,0.391-0.077,0.507-0.233c0.117-0.157,0.175-0.363,0.175-0.621
				c0-0.259-0.06-0.471-0.181-0.633c-0.12-0.162-0.291-0.242-0.513-0.242c-0.197,0-0.341,0.031-0.439,0.095
				c-0.095,0.064-0.163,0.159-0.207,0.279L6.293,18.374z"/>
			<path fill="#FFFFFF" d="M12.388,18.64c0,0.56-0.126,0.983-0.377,1.276c-0.251,0.292-0.592,0.44-1.024,0.44
				c-0.434,0-0.78-0.148-1.033-0.44c-0.255-0.293-0.381-0.717-0.381-1.276v-0.981c0-0.557,0.126-0.982,0.378-1.277
				c0.251-0.295,0.594-0.442,1.028-0.442c0.434,0,0.775,0.147,1.03,0.442c0.253,0.295,0.379,0.721,0.379,1.277V18.64z
				 M11.673,17.547c0-0.351-0.061-0.611-0.179-0.778c-0.116-0.17-0.289-0.254-0.516-0.254c-0.226,0-0.396,0.084-0.514,0.254
				c-0.117,0.167-0.176,0.428-0.176,0.778v1.193c0,0.354,0.059,0.616,0.179,0.785c0.118,0.172,0.291,0.255,0.519,0.255
				c0.225,0,0.394-0.083,0.514-0.253c0.114-0.168,0.173-0.433,0.173-0.787V17.547z"/>
			<path fill="#FFFFFF" d="M15.82,18.64c0,0.56-0.125,0.983-0.378,1.276c-0.251,0.292-0.594,0.44-1.024,0.44
				c-0.434,0-0.779-0.148-1.032-0.44c-0.255-0.293-0.382-0.717-0.382-1.276v-0.981c0-0.557,0.127-0.982,0.379-1.277
				c0.251-0.295,0.593-0.442,1.026-0.442s0.778,0.147,1.031,0.442c0.254,0.295,0.38,0.721,0.38,1.277V18.64z M15.104,17.547
				c0-0.351-0.06-0.611-0.177-0.778c-0.119-0.17-0.291-0.254-0.519-0.254c-0.224,0-0.396,0.084-0.512,0.254
				c-0.117,0.167-0.178,0.428-0.178,0.778v1.193c0,0.354,0.061,0.616,0.179,0.785c0.119,0.172,0.292,0.255,0.52,0.255
				c0.225,0,0.397-0.083,0.511-0.253c0.117-0.168,0.176-0.433,0.176-0.787V17.547z"/>
		</g>
		<g>
			<path fill="#FFFFFF" d="M0.867,16.713H0.303v0.406h0.655v0.173H0.089v-1.286h0.863v0.171H0.303v0.362h0.564V16.713z"/>
			<path fill="#FFFFFF" d="M1.354,16.757v0.535H1.138v-1.286h0.477c0.144,0,0.254,0.029,0.333,0.096
				c0.079,0.065,0.117,0.156,0.117,0.276c0,0.067-0.017,0.125-0.051,0.172c-0.035,0.049-0.085,0.088-0.15,0.116
				c0.072,0.022,0.124,0.06,0.156,0.113c0.032,0.053,0.047,0.116,0.047,0.19v0.109c0,0.037,0.005,0.076,0.014,0.11
				c0.009,0.035,0.026,0.062,0.048,0.083v0.02H1.907c-0.023-0.02-0.038-0.051-0.043-0.092c-0.008-0.042-0.012-0.084-0.012-0.123
				v-0.104c0-0.066-0.019-0.119-0.057-0.156c-0.037-0.04-0.088-0.061-0.156-0.061H1.354z M1.354,16.584h0.249
				c0.087,0,0.149-0.015,0.189-0.049c0.04-0.032,0.059-0.084,0.059-0.151c0-0.065-0.019-0.114-0.058-0.151
				c-0.039-0.039-0.098-0.056-0.177-0.056H1.354V16.584z"/>
			<path fill="#FFFFFF" d="M2.553,16.757v0.535H2.338v-1.286h0.477c0.143,0,0.255,0.029,0.333,0.096
				c0.078,0.065,0.118,0.156,0.118,0.276c0,0.067-0.018,0.125-0.052,0.172c-0.034,0.049-0.085,0.088-0.151,0.116
				c0.073,0.022,0.125,0.06,0.157,0.113c0.033,0.053,0.048,0.116,0.048,0.19v0.109c0,0.037,0.004,0.076,0.014,0.11
				c0.009,0.035,0.025,0.062,0.048,0.083v0.02H3.108c-0.024-0.02-0.039-0.051-0.046-0.092c-0.006-0.042-0.01-0.084-0.01-0.123
				v-0.104c0-0.066-0.019-0.119-0.056-0.156c-0.039-0.04-0.09-0.061-0.157-0.061H2.553z M2.553,16.584h0.25
				c0.087,0,0.149-0.015,0.189-0.049c0.04-0.032,0.059-0.084,0.059-0.151c0-0.065-0.02-0.114-0.059-0.151
				c-0.038-0.039-0.098-0.056-0.177-0.056H2.553V16.584z"/>
			<path fill="#FFFFFF" d="M4.542,16.764c0,0.156-0.049,0.287-0.146,0.392c-0.099,0.104-0.229,0.154-0.386,0.154
				c-0.155,0-0.28-0.051-0.375-0.154c-0.098-0.104-0.146-0.235-0.146-0.392v-0.231c0-0.157,0.048-0.287,0.146-0.392
				c0.095-0.105,0.221-0.156,0.375-0.156c0.157,0,0.286,0.051,0.384,0.156c0.1,0.104,0.149,0.234,0.149,0.392V16.764z M4.328,16.529
				c0-0.106-0.03-0.195-0.086-0.263c-0.058-0.068-0.135-0.104-0.233-0.104c-0.094,0-0.169,0.036-0.224,0.104
				c-0.056,0.067-0.082,0.156-0.082,0.263v0.234c0,0.108,0.026,0.196,0.082,0.267c0.055,0.07,0.13,0.104,0.225,0.104
				c0.1,0,0.176-0.033,0.233-0.104c0.059-0.07,0.086-0.156,0.086-0.267V16.529z"/>
			<path fill="#FFFFFF" d="M4.989,16.757v0.535H4.773v-1.286h0.478c0.143,0,0.253,0.029,0.333,0.096
				c0.079,0.065,0.117,0.156,0.117,0.276c0,0.067-0.017,0.125-0.051,0.172c-0.034,0.049-0.085,0.088-0.151,0.116
				c0.073,0.022,0.126,0.06,0.156,0.113c0.032,0.053,0.049,0.116,0.049,0.19v0.109c0,0.037,0.004,0.076,0.014,0.11
				c0.009,0.035,0.024,0.062,0.047,0.083v0.02h-0.22c-0.026-0.02-0.042-0.051-0.047-0.092c-0.006-0.042-0.01-0.084-0.01-0.123
				v-0.104c0-0.066-0.019-0.119-0.056-0.156c-0.039-0.04-0.091-0.061-0.157-0.061H4.989z M4.989,16.584h0.25
				c0.087,0,0.149-0.015,0.189-0.049c0.04-0.032,0.059-0.084,0.059-0.151c0-0.065-0.019-0.114-0.057-0.151
				c-0.04-0.039-0.098-0.056-0.177-0.056H4.989V16.584z"/>
		</g>
	</g>
	<rect x="-2.271" y="13.842" opacity="0.85" fill="#FFFFFF" width="22.646" height="0.074"/>
	<g opacity="0.65">
		<polygon fill="#FFFFFF" points="13.199,-2.235 10.438,0.158 12.723,-0.112 9.31,3.309 15.167,-1.113 12.769,-0.758 14.923,-2.235 
					"/>
		<g>
			<g>
				<path fill="#FFFFFF" d="M14.068,2.469H3.003v7.192h8.851c0,0.427,0.354,0.427,0.613,0.427c0.323,0,0.453,0.023,0.453,0.264
					h0.161c0-0.425-0.356-0.425-0.614-0.425c-0.322,0-0.456-0.022-0.456-0.266h2.057V2.469z M13.55,9.14H3.521V2.987H13.55V9.14z"/>
				<polygon fill="#FFFFFF" points="6.875,10.295 5.769,11.403 11.304,11.403 10.194,10.295 				"/>
				<path fill="#FFFFFF" d="M13.297,10.352c0.014,0.047,0.022,0.096,0.022,0.149v0.695c0,0.221-0.144,0.399-0.317,0.399
					c-0.177,0-0.321-0.179-0.321-0.399v-0.695c0-0.054,0.008-0.104,0.022-0.149c-0.438,0.118-0.769,0.518-0.769,0.995v0.925
					c0,0.566,0.464,1.03,1.03,1.03h0.071c0.567,0,1.031-0.464,1.031-1.03v-0.925C14.068,10.869,13.738,10.47,13.297,10.352z"/>
				<ellipse fill="#FFFFFF" cx="13.002" cy="10.849" rx="0.158" ry="0.32"/>
			</g>
		</g>
		<g>
			<g>
				<path fill-rule="evenodd" clip-rule="evenodd" fill="#FFFFFF" d="M8.068,7.266L7.841,6.583l0.146-0.15
					C7.853,6.295,7.771,6.11,7.766,5.902C7.76,5.478,8.098,5.128,8.522,5.123c0.111-0.002,0.219,0.021,0.315,0.06L8.648,4.661
					l0.421-0.434c-0.02-0.007-0.03-0.016-0.035-0.038C9.008,4.021,8.981,3.853,8.952,3.687C8.938,3.611,8.898,3.579,8.821,3.581
					C8.611,3.584,8.4,3.588,8.189,3.59C8.11,3.593,8.072,3.628,8.063,3.705C8.042,3.871,8.019,4.038,7.996,4.204
					c-0.003,0.013-0.018,0.03-0.03,0.036C7.888,4.275,7.803,4.311,7.721,4.345C7.709,4.35,7.686,4.35,7.674,4.342
					c-0.06-0.044-0.119-0.089-0.18-0.132c-0.064-0.049-0.131-0.1-0.197-0.149C7.232,4.015,7.185,4.017,7.122,4.066
					C7.108,4.078,7.094,4.086,7.082,4.1c-0.14,0.142-0.279,0.287-0.415,0.43C6.598,4.604,6.6,4.645,6.66,4.723
					c0.097,0.123,0.192,0.248,0.29,0.369c0.016,0.022,0.019,0.037,0.007,0.064C6.928,5.221,6.901,5.291,6.875,5.359
					C6.867,5.383,6.858,5.395,6.83,5.399C6.664,5.425,6.498,5.453,6.333,5.484C6.249,5.497,6.224,5.531,6.226,5.616
					c0.001,0.206,0.006,0.411,0.009,0.617c0.002,0.094,0.024,0.127,0.117,0.142C6.508,6.397,6.667,6.42,6.825,6.439
					c0.04,0.003,0.061,0.015,0.076,0.057c0.022,0.063,0.053,0.126,0.083,0.188C6.996,6.71,6.994,6.728,6.977,6.748
					C6.882,6.871,6.788,6.996,6.698,7.119C6.645,7.187,6.645,7.226,6.694,7.296C6.701,7.307,6.71,7.319,6.72,7.33
					c0.14,0.162,0.297,0.311,0.464,0.445C7.254,7.828,7.291,7.826,7.36,7.77c0.123-0.1,0.244-0.197,0.369-0.296
					c0.019-0.016,0.034-0.017,0.056-0.008c0.021,0.009,0.042,0.02,0.063,0.026L8.068,7.266z"/>
				<path fill-rule="evenodd" clip-rule="evenodd" fill="#FFFFFF" d="M10.43,7.228c0.038-0.043,0.033-0.096-0.003-0.144
					c-0.102-0.132-0.203-0.264-0.307-0.395c-0.016-0.019-0.017-0.033-0.006-0.056c0.029-0.067,0.055-0.136,0.079-0.204
					c0.01-0.027,0.022-0.04,0.053-0.046c0.16-0.024,0.32-0.053,0.483-0.082c0.095-0.014,0.119-0.047,0.117-0.139
					c-0.004-0.204-0.008-0.408-0.01-0.612c-0.001-0.096-0.024-0.126-0.118-0.142c-0.156-0.024-0.311-0.045-0.467-0.064
					c-0.041-0.005-0.067-0.013-0.081-0.06C10.15,5.221,10.12,5.161,10.09,5.102c-0.014-0.026-0.014-0.043,0.006-0.068
					c0.097-0.126,0.192-0.255,0.286-0.383c0.043-0.057,0.043-0.091,0.004-0.151c-0.012-0.016-0.021-0.031-0.035-0.043
					c-0.139-0.163-0.292-0.311-0.459-0.444c-0.076-0.059-0.11-0.055-0.184,0.006c-0.121,0.098-0.241,0.194-0.36,0.292
					C9.329,4.327,9.312,4.327,9.289,4.317c-0.012-0.006-0.024-0.01-0.035-0.016L8.861,4.708l0.21,0.574l-0.029,0.03
					C9.2,5.45,9.301,5.651,9.304,5.88C9.31,6.307,8.975,6.652,8.55,6.662c-0.153,0.001-0.297-0.04-0.418-0.114L8.054,6.631
					l0.226,0.684L8.028,7.573C8.03,7.579,8.034,7.584,8.036,7.594C8.063,7.76,8.091,7.926,8.119,8.09
					c0.015,0.083,0.053,0.114,0.139,0.114c0.206-0.004,0.412-0.008,0.619-0.009C8.963,8.192,8.999,8.16,9.01,8.073
					c0.02-0.162,0.042-0.325,0.066-0.487c0.003-0.015,0.014-0.034,0.03-0.04c0.087-0.042,0.177-0.078,0.271-0.119
					c0.003,0.004,0.015,0.011,0.024,0.017c0.125,0.094,0.249,0.187,0.375,0.279C9.842,7.771,9.883,7.77,9.944,7.72
					C10.123,7.573,10.276,7.399,10.43,7.228z"/>
			</g>
		</g>
		<polygon fill="#E8E8EB" points="10.147,2.469 9.31,3.309 10.421,2.469 		"/>
	</g>
</g>
</svg>
