<?xml version="1.0" encoding="utf-8"?>
<!-- Generator: Adobe Illustrator 16.0.0, SVG Export Plug-In . SVG Version: 6.00 Build 0)  -->
<!DOCTYPE svg PUBLIC "-//W3C//DTD SVG 1.1//EN" "http://www.w3.org/Graphics/SVG/1.1/DTD/svg11.dtd">
<svg version="1.1" xmlns="http://www.w3.org/2000/svg" xmlns:xlink="http://www.w3.org/1999/xlink" x="0px" y="0px"
	 width="17.998px" height="55.993px" viewBox="0 0 17.998 55.993" enable-background="new 0 0 17.998 55.993" xml:space="preserve">
<g id="Capa_1" display="none">
	
		<image display="inline" overflow="visible" width="18" height="56" xlink:href="plantilla documentacion/images/cssradiobutton.png"  transform="matrix(0.9999 0 0 0.9999 0 0)">
	</image>
</g>
<g id="Capa_2">
	<g>
		<path fill="#57B4AE" d="M16.437,50.438H1.562V35.563h14.875V50.438z M2.553,49.446h12.891V36.556H2.553V49.446z"/>
		<path fill-rule="evenodd" clip-rule="evenodd" fill="#57B4AE" d="M7.612,43.74c0.079-0.095,0.126-0.162,0.182-0.218
			c1.608-1.611,3.218-3.22,4.825-4.836c0.239-0.238,0.51-0.335,0.831-0.223c0.115,0.041,0.225,0.122,0.312,0.207
			c0.329,0.317,0.651,0.642,0.972,0.967c0.351,0.354,0.351,0.779-0.002,1.134c-0.377,0.382-0.758,0.759-1.137,1.139
			c-1.795,1.798-3.595,3.592-5.389,5.392c-0.231,0.232-0.494,0.351-0.814,0.245c-0.125-0.043-0.246-0.123-0.338-0.216
			c-1.259-1.252-2.515-2.506-3.766-3.763c-0.358-0.356-0.354-0.782,0.005-1.142c0.314-0.319,0.631-0.635,0.949-0.95
			c0.365-0.36,0.788-0.359,1.154,0.004c0.69,0.693,1.383,1.388,2.072,2.082C7.511,43.605,7.543,43.656,7.612,43.74z"/>
	</g>
	<g>
		<path fill="#979797" d="M16.437,21.149H1.562V6.274h14.875V21.149z M2.553,20.157h12.891V7.267H2.553V20.157z"/>
	</g>
</g>
</svg>
