<?xml version="1.0" encoding="UTF-8" standalone="no"?>
<svg
   xmlns:dc="http://purl.org/dc/elements/1.1/"
   xmlns:cc="http://creativecommons.org/ns#"
   xmlns:rdf="http://www.w3.org/1999/02/22-rdf-syntax-ns#"
   xmlns:svg="http://www.w3.org/2000/svg"
   xmlns="http://www.w3.org/2000/svg"
   xmlns:xlink="http://www.w3.org/1999/xlink"
   version="1.1"
   id="svg4189"
   viewBox="0 0 20 18"
   height="18"
   width="20">
  <defs
     id="defs4191">
    <linearGradient
       id="linearGradient4914">
      <stop
         id="stop4916"
         offset="0"
         style="stop-color:#ffffff;stop-opacity:0.35323384" />
      <stop
         id="stop4918"
         offset="1"
         style="stop-color:#ffffff;stop-opacity:0" />
    </linearGradient>
    <linearGradient
       id="linearGradient4906">
      <stop
         id="stop4908"
         offset="0"
         style="stop-color:#ffffff;stop-opacity:0.29353234" />
      <stop
         id="stop4910"
         offset="1"
         style="stop-color:#ffffff;stop-opacity:0" />
    </linearGradient>
    <linearGradient
       id="linearGradient4828">
      <stop
         id="stop4830"
         offset="0"
         style="stop-color:#69c8f1;stop-opacity:1" />
      <stop
         id="stop4832"
         offset="1"
         style="stop-color:#335e91;stop-opacity:1" />
    </linearGradient>
    <radialGradient
       gradientUnits="userSpaceOnUse"
       gradientTransform="matrix(0.780275,0.3290619,-0.36914461,0.69660072,480.6261,72.798791)"
       r="21.739889"
       fy="925.39417"
       fx="632.70831"
       cy="925.39417"
       cx="632.70831"
       id="radialGradient4836"
       xlink:href="#linearGradient4828" />
    <linearGradient
       gradientUnits="userSpaceOnUse"
       y2="776.46429"
       x2="609.12201"
       y1="772.04486"
       x1="604.70258"
       id="linearGradient4912"
       xlink:href="#linearGradient4906" />
    <linearGradient
       gradientUnits="userSpaceOnUse"
       y2="776.33801"
       x2="629.57758"
       y1="782.14642"
       x1="636.7749"
       id="linearGradient4920"
       xlink:href="#linearGradient4914" />
  </defs>
  <metadata
     id="metadata4194">
    <rdf:RDF>
      <cc:Work
         rdf:about="">
        <dc:format>image/svg+xml</dc:format>
        <dc:type
           rdf:resource="http://purl.org/dc/dcmitype/StillImage" />
        <dc:title></dc:title>
      </cc:Work>
    </rdf:RDF>
  </metadata>
  <g
     transform="translate(0,-1034.3622)"
     id="layer1">
    <g
       transform="matrix(0.42146194,0,0,0.44642986,-249.97292,697.69571)"
       id="g4946">
      <path
         style="opacity:1;fill:#485b82;fill-opacity:1;stroke:none;stroke-width:1;stroke-linecap:round;stroke-linejoin:miter;stroke-miterlimit:4;stroke-dasharray:none;stroke-dashoffset:0;stroke-opacity:1"
         d="m 610.5056,754.13173 -17.39649,4.39063 5.17969,29.39063 0.74024,4.45898 c 0.21791,1.31215 1.68264,2.04033 3.28515,1.63476 l 0.041,-0.01 34.96093,-9.12695 c 0.87005,-0.62824 1.38362,-1.57781 1.23047,-2.5 l -4.0957,-24.66602 c -0.21791,-1.31215 -1.6846,-2.04229 -3.28711,-1.63672 l -19.0625,4.82617 -1.5957,-6.76172 z"
         id="path4818" />
      <rect
         transform="matrix(0.97196484,-0.23512626,0,1,0,0)"
         rx="2.38539"
         ry="2.4041305"
         y="912.27814"
         x="616.42871"
         height="27.606335"
         width="42.480247"
         id="rect4822"
         style="opacity:1;fill:url(#radialGradient4836);fill-opacity:1;stroke:none;stroke-width:0.99953198;stroke-linecap:round;stroke-linejoin:miter;stroke-miterlimit:4;stroke-dasharray:none;stroke-dashoffset:0;stroke-opacity:1" />
      <path
         style="opacity:1;fill:url(#linearGradient4912);fill-opacity:1;stroke:none;stroke-width:1;stroke-linecap:round;stroke-linejoin:miter;stroke-miterlimit:4;stroke-dasharray:none;stroke-dashoffset:0;stroke-opacity:1"
         d="m 636.90118,758.28155 c 0,0 -26.58422,6.37307 -34.87642,8.48486 -0.92472,0.2355 -2.27723,0.45095 -2.41443,2.11724 -0.7403,8.99125 -0.14789,15.63361 0.0415,24.24817 0.22486,-17.2599 19.47892,-30.17054 37.24937,-34.85027 z"
         id="path4824" />
      <path
         style="opacity:1;fill:url(#linearGradient4920);fill-opacity:1;stroke:none;stroke-width:1;stroke-linecap:round;stroke-linejoin:miter;stroke-miterlimit:4;stroke-dasharray:none;stroke-dashoffset:0;stroke-opacity:1"
         d="m 618.08709,790.35389 c 8.9128,-5.72281 10.61295,-9.23033 12.75952,-13.39721 2.14658,-4.16688 3.75109,-7.78536 6.43338,-10.08884 2.10963,-1.81169 3.15672,-1.01015 3.15672,-1.01015 l 0.12627,16.28871 c 0,0 -0.50507,2.39911 -1.38896,3.03046 -0.88388,0.63134 -21.08693,5.17703 -21.08693,5.17703 z"
         id="path4826" />
    </g>
    <g
       id="g4952"
       transform="matrix(0.42146194,0,0,0.44642986,-249.97292,697.69571)">
      <path
         id="path4954"
         d="m 610.5056,754.13173 -17.39649,4.39063 5.17969,29.39063 0.74024,4.45898 c 0.21791,1.31215 1.68264,2.04033 3.28515,1.63476 l 0.041,-0.01 34.96093,-9.12695 c 0.87005,-0.62824 1.38362,-1.57781 1.23047,-2.5 l -4.0957,-24.66602 c -0.21791,-1.31215 -1.6846,-2.04229 -3.28711,-1.63672 l -19.0625,4.82617 -1.5957,-6.76172 z"
         style="opacity:1;fill:#485b82;fill-opacity:1;stroke:none;stroke-width:1;stroke-linecap:round;stroke-linejoin:miter;stroke-miterlimit:4;stroke-dasharray:none;stroke-dashoffset:0;stroke-opacity:1" />
      <rect
         style="opacity:1;fill:url(#radialGradient4836);fill-opacity:1;stroke:none;stroke-width:0.99953198;stroke-linecap:round;stroke-linejoin:miter;stroke-miterlimit:4;stroke-dasharray:none;stroke-dashoffset:0;stroke-opacity:1"
         id="rect4956"
         width="42.480247"
         height="27.606335"
         x="616.42871"
         y="912.27814"
         ry="2.4041305"
         rx="2.38539"
         transform="matrix(0.97196484,-0.23512626,0,1,0,0)" />
      <path
         id="path4958"
         d="m 636.90118,758.28155 c 0,0 -26.58422,6.37307 -34.87642,8.48486 -0.92472,0.2355 -2.27723,0.45095 -2.41443,2.11724 -0.7403,8.99125 -0.14789,15.63361 0.0415,24.24817 0.22486,-17.2599 19.47892,-30.17054 37.24937,-34.85027 z"
         style="opacity:1;fill:url(#linearGradient4912);fill-opacity:1;stroke:none;stroke-width:1;stroke-linecap:round;stroke-linejoin:miter;stroke-miterlimit:4;stroke-dasharray:none;stroke-dashoffset:0;stroke-opacity:1" />
      <path
         id="path4960"
         d="m 618.08709,790.35389 c 8.9128,-5.72281 10.61295,-9.23033 12.75952,-13.39721 2.14658,-4.16688 3.75109,-7.78536 6.43338,-10.08884 2.10963,-1.81169 3.15672,-1.01015 3.15672,-1.01015 l 0.12627,16.28871 c 0,0 -0.50507,2.39911 -1.38896,3.03046 -0.88388,0.63134 -21.08693,5.17703 -21.08693,5.17703 z"
         style="opacity:1;fill:url(#linearGradient4920);fill-opacity:1;stroke:none;stroke-width:1;stroke-linecap:round;stroke-linejoin:miter;stroke-miterlimit:4;stroke-dasharray:none;stroke-dashoffset:0;stroke-opacity:1" />
    </g>
  </g>
</svg>
